<svg width="180" height="138" viewBox="0 0 180 138" fill="none" xmlns="http://www.w3.org/2000/svg">
    <path
        fill-rule="evenodd"
        clip-rule="evenodd"
        d="M66.3611 114.503V37.5106L60.831 32.8569L55.3009 37.5106L49.7708 32.8569L44.2407 37.5106L38.7106 32.8569L33.1805 37.5106L27.6504 32.8569L22.1204 37.5106L16.5903 32.8569L11.0602 37.5106L5.53009 32.8569L0 37.5106V114.934C0 119.507 3.5779 123.214 7.99146 123.214H72.8182C69.238 123.131 66.3611 119.256 66.3611 114.503Z"
        fill="url(#paint0_linear)"
    />
    <path d="M45.494 123.269H60.4138L60.4138 61.7424H45.494L45.494 123.269Z" fill="#3C5AFB" />
    <path
        fill-rule="evenodd"
        clip-rule="evenodd"
        d="M43.9743 123.269H52.9667V61.7422H35.8684V112.884C35.8684 118.62 39.4907 123.269 43.9743 123.269Z"
        fill="url(#paint1_linear)"
    />
    <path
        fill-rule="evenodd"
        clip-rule="evenodd"
        d="M33.4154 112.884C33.4154 118.62 29.7931 123.269 25.3096 123.269L98.4616 123.181L102.164 0L43.725 0.215751C38.0256 0.215751 33.4154 6.12837 33.4154 13.4307V112.884Z"
        fill="url(#paint2_linear)"
    />
    <path
        fill-rule="evenodd"
        clip-rule="evenodd"
        d="M74.8269 13.4309V130.9L83.5913 138L92.3558 130.9L101.12 138L109.885 130.9L118.649 138L127.413 130.9L136.178 138L144.942 130.9L153.707 138L162.471 130.9L171.236 138L180 130.9V12.7739C180 5.79648 174.33 0.140137 167.335 0.140137H64.5933C70.2674 0.26648 74.8269 6.17909 74.8269 13.4309Z"
        fill="#1C60BC"
    />
    <path
        d="M148.101 73.9287H163.627C164.988 73.9287 166.091 72.8254 166.091 71.4644C166.091 70.1034 164.988 69.0001 163.627 69.0001H148.101C146.74 69.0001 145.637 70.1034 145.637 71.4644C145.637 72.8254 146.74 73.9287 148.101 73.9287Z"
        fill="#FFD1E4"
    />
    <path
        d="M148.101 60.7856H163.627C164.988 60.7856 166.091 59.6823 166.091 58.3214V58.3214C166.091 56.9604 164.988 55.8571 163.627 55.8571H148.101C146.74 55.8571 145.637 56.9604 145.637 58.3214C145.637 59.6823 146.74 60.7856 148.101 60.7856Z"
        fill="#FFD1E4"
    />
    <path
        d="M148.101 47.6431H163.627C164.988 47.6431 166.091 46.5398 166.091 45.1788V45.1788C166.091 43.8178 164.988 42.7145 163.627 42.7145H148.101C146.74 42.7145 145.637 43.8178 145.637 45.1788C145.637 46.5398 146.74 47.6431 148.101 47.6431Z"
        fill="#FFD1E4"
    />
    <path
        fill-rule="evenodd"
        clip-rule="evenodd"
        d="M154.762 107.324L151.864 105.198C151.485 104.922 151.301 104.489 151.383 104.061C151.464 103.634 151.799 103.278 152.26 103.126C152.722 102.975 153.24 103.051 153.619 103.327L155.495 104.688L158.771 101.443C159.099 101.118 159.599 100.973 160.081 101.061C160.564 101.149 160.957 101.457 161.112 101.869C161.267 102.281 161.16 102.734 160.832 103.058L156.67 107.175C156.413 107.443 156.038 107.6 155.64 107.607C155.318 107.608 155.007 107.508 154.762 107.324Z"
        fill="#FFD1E4"
    />
    <path
        fill-rule="evenodd"
        clip-rule="evenodd"
        d="M166.091 104.321C166.091 109.765 161.695 114.179 156.273 114.179C150.861 114.154 146.479 109.755 146.455 104.321C146.455 98.8776 150.85 94.4644 156.273 94.4644C161.695 94.4644 166.091 98.8776 166.091 104.321ZM163.073 101.487C161.931 98.7247 159.244 96.9254 156.265 96.9286C152.203 96.9371 148.913 100.243 148.909 104.321C148.909 107.312 150.704 110.008 153.457 111.152C156.209 112.296 159.377 111.662 161.482 109.546C163.588 107.43 164.216 104.249 163.073 101.487Z"
        fill="#FFD1E4"
    />
    <path
        fill-rule="evenodd"
        clip-rule="evenodd"
        d="M134.159 111.714H92.4776C91.1093 111.714 90 110.611 90 109.25C90 107.889 91.1093 106.786 92.4776 106.786H134.159C135.527 106.786 136.636 107.889 136.636 109.25C136.636 110.611 135.527 111.714 134.159 111.714Z"
        fill="white"
    />
    <path
        fill-rule="evenodd"
        clip-rule="evenodd"
        d="M134.159 73.9286H92.4776C91.1093 73.9286 90 72.8253 90 71.4643C90 70.1033 91.1093 69 92.4776 69H134.159C135.527 69 136.636 70.1033 136.636 71.4643C136.636 72.8253 135.527 73.9286 134.159 73.9286Z"
        fill="white"
    />
    <path
        fill-rule="evenodd"
        clip-rule="evenodd"
        d="M134.159 60.7855H92.4776C91.1093 60.7855 90 59.6822 90 58.3212C90 56.9602 91.1093 55.8569 92.4776 55.8569H134.159C135.527 55.8569 136.636 56.9602 136.636 58.3212C136.636 59.6822 135.527 60.7855 134.159 60.7855Z"
        fill="white"
    />
    <path
        fill-rule="evenodd"
        clip-rule="evenodd"
        d="M134.159 47.643H92.4776C91.1093 47.643 90 46.5397 90 45.1787C90 43.8177 91.1093 42.7144 92.4776 42.7144H134.159C135.527 42.7144 136.636 43.8177 136.636 45.1787C136.636 46.5397 135.527 47.643 134.159 47.643Z"
        fill="white"
    />
    <defs>
        <linearGradient id="paint0_linear" x1="0" y1="106.601" x2="46.0708" y2="106.601" gradientUnits="userSpaceOnUse">
            <stop stop-color="#FFD1E4" />
            <stop offset="1" stop-color="#C3E8FF" />
        </linearGradient>
        <linearGradient
            id="paint1_linear"
            x1="34.1206"
            y1="126.062"
            x2="52.764"
            y2="126.062"
            gradientUnits="userSpaceOnUse"
        >
            <stop stop-color="#74CBFF" />
            <stop offset="1" stop-color="#003A8E" />
        </linearGradient>
        <linearGradient
            id="paint2_linear"
            x1="25.3096"
            y1="162.833"
            x2="74.0749"
            y2="162.833"
            gradientUnits="userSpaceOnUse"
        >
            <stop stop-color="#75CBFF" />
            <stop offset="1" stop-color="#19488D" />
        </linearGradient>
    </defs>
</svg>
