<svg width="24" height="24" viewBox="0 0 24 24" fill="none" xmlns="http://www.w3.org/2000/svg">
    <path
        d="M12.2912 8.41327C12.1081 8.20164 12.0388 7.91441 12.0718 7.71123C12.0874 7.61505 12.1209 7.56504 12.144 7.54284C12.1603 7.52719 12.1958 7.5 12.29 7.5C14.7738 7.5 16.79 9.51614 16.79 12C16.79 14.4839 14.7738 16.5 12.29 16.5C12.1958 16.5 12.1603 16.4728 12.144 16.4572C12.1209 16.435 12.0874 16.385 12.0718 16.2888C12.0388 16.0856 12.1081 15.7984 12.2912 15.5867C13.1239 14.6241 13.63 13.3689 13.63 12C13.63 10.6311 13.1239 9.37592 12.2912 8.41327Z"
        stroke="#475166"
        stroke-linejoin="round"
    />
    <circle cx="12" cy="12" r="9.5" stroke="#475166" />
</svg>
