<svg width="24" height="24" viewBox="0 0 24 24" fill="none" xmlns="http://www.w3.org/2000/svg">
    <path
        d="M9.20377 3.65262C9.72856 3.55305 10.2693 3.5 10.8192 3.5C15.6203 3.5 19.5 7.31747 19.5 12C19.5 16.6825 15.6203 20.5 10.8192 20.5C10.2693 20.5 9.72856 20.4469 9.20377 20.3474C9.03428 20.3152 8.94491 20.2076 8.92864 20.0271C8.91049 19.8258 9.00011 19.5801 9.20256 19.4219C11.4261 17.6841 12.8616 15.0026 12.8616 12C12.8616 8.99739 11.4261 6.31586 9.20256 4.57812C9.00011 4.4199 8.91049 4.17422 8.92864 3.97291C8.94491 3.7924 9.03428 3.68478 9.20377 3.65262Z"
        stroke="#475166"
        stroke-linejoin="round"
    />
</svg>
