<svg width="22" height="22" viewBox="0 0 22 22" fill="none" xmlns="http://www.w3.org/2000/svg">
    <path
        d="M11.9307 7.80074L15.7211 4.01029C16.2333 3.49807 16.2333 2.67851 15.7211 2.21751C15.2089 1.70529 14.3893 1.70529 13.9283 2.21751L10.1379 6.00796"
        stroke="#475166"
        stroke-miterlimit="10"
    />
    <path
        d="M16.6431 12.5132L20.4336 8.72276C20.9458 8.21053 20.9458 7.39098 20.4336 6.92997C19.9214 6.41775 19.1018 6.41775 18.6408 6.92997L14.8503 10.7204"
        stroke="#475166"
        stroke-miterlimit="10"
    />
    <path
        d="M5.11809 17.0208C2.81309 14.7158 2.65942 11.7961 4.60587 9.84964L6.36187 8.09364C6.5494 7.9061 6.65476 7.65175 6.65476 7.38653V6.16606C6.65476 5.90085 6.76012 5.64649 6.94765 5.45896L7.48432 4.92229C7.87485 4.53176 8.50801 4.53176 8.89854 4.92229L17.8562 13.88C18.1933 14.217 18.2456 14.7451 17.9812 15.1418L17.7083 15.551C17.5229 15.8292 17.2106 15.9963 16.8763 15.9963H15.2645C14.9993 15.9963 14.745 16.1017 14.5574 16.2892L12.8014 18.0452C11.1623 19.6843 8.70365 19.4282 6.65476 18.0452"
        stroke="#475166"
        stroke-miterlimit="10"
    />
    <path
        d="M8.19144 18.5574L6.14254 20.6063C5.52787 21.221 4.45221 20.6063 3.27409 19.377C2.09598 18.1989 1.48131 17.072 2.04476 16.5085L3.58143 14.9719"
        stroke="#475166"
        stroke-miterlimit="10"
    />
    <path
        d="M6.65475 11.3863L11.2648 15.9963"
        stroke="#475166"
        stroke-miterlimit="10"
        stroke-linecap="round"
        stroke-linejoin="round"
    />
</svg>
