<svg width="24" height="24" viewBox="0 0 24 24" fill="none" xmlns="http://www.w3.org/2000/svg">
    <line x1="2.5" y1="11.5" x2="10.5" y2="11.5" stroke="#475166" stroke-linecap="round" />
    <path
        d="M10.3904 8.68765C10.2179 8.47202 9.90328 8.43706 9.68765 8.60957C9.47202 8.78207 9.43706 9.09672 9.60957 9.31235L10.3904 8.68765ZM12 11.5L12.3904 11.8123L12.6403 11.5L12.3904 11.1877L12 11.5ZM9.60957 13.6877C9.43706 13.9033 9.47202 14.2179 9.68765 14.3904C9.90328 14.5629 10.2179 14.528 10.3904 14.3123L9.60957 13.6877ZM9.60957 9.31235L11.6096 11.8123L12.3904 11.1877L10.3904 8.68765L9.60957 9.31235ZM11.6096 11.1877L9.60957 13.6877L10.3904 14.3123L12.3904 11.8123L11.6096 11.1877Z"
        fill="#475166"
    />
    <rect x="6.5" y="3.5" width="10" height="16" rx="1.5" stroke="#475166" />
</svg>
