<svg width="147" height="42" viewBox="0 0 147 42" fill="none" xmlns="http://www.w3.org/2000/svg">
    <path
        fill-rule="evenodd"
        clip-rule="evenodd"
        d="M83.6197 24.9704L83.6183 24.9169V6.125H80.5L80.5005 24.9691C80.5009 24.9955 80.5017 25.0309 80.5032 25.0745C80.506 25.1618 80.5116 25.2825 80.5223 25.432C80.5436 25.7304 80.5854 26.1466 80.6677 26.6419C80.8313 27.6251 81.1613 28.9598 81.8369 30.3135C82.5156 31.6733 83.558 33.0807 85.1508 34.1445C86.7534 35.2149 88.8204 35.875 91.4375 35.875C93.1796 35.875 95.2464 35.2149 96.8494 34.1445C98.4419 33.0807 99.4849 31.6733 100.163 30.3135C100.839 28.9598 101.168 27.6251 101.332 26.6419C101.414 26.1466 101.456 25.7304 101.478 25.432C101.489 25.2825 101.5 24.9909 101.5 24.926V6.125H98.3815L98.3806 24.9704C98.3789 25.0208 98.3754 25.1019 98.3675 25.2094C98.3517 25.4248 98.3202 25.7427 98.2564 26.1283C98.1269 26.9069 97.8705 27.9211 97.3744 28.9164C96.88 29.9056 96.1643 30.8472 95.1195 31.5451C94.0844 32.2364 93.5095 32.7508 91.4375 32.7508C89.3655 32.7508 87.9156 32.2364 86.8805 31.5451C85.8357 30.8472 85.1197 29.9056 84.626 28.9164C84.1292 27.9211 83.8731 26.9069 83.7436 26.1283C83.6795 25.7427 83.648 25.4248 83.6327 25.2094C83.625 25.1019 83.6214 25.0208 83.6197 24.9704Z"
        fill="black"
    />
    <path
        d="M75.9771 10.4779L73.8523 12.7365C71.6339 10.4094 68.9477 9.24595 65.7938 9.24595C64.003 9.27334 62.4128 9.6292 61.0228 10.3136C59.6598 10.998 58.5104 11.9015 57.575 13.0239C56.6662 14.119 55.9713 15.3783 55.4902 16.8019C55.0358 18.1982 54.8087 19.6354 54.8087 21.1137C54.8087 22.5921 55.0492 24.0293 55.5303 25.4256C56.0114 26.8218 56.7063 28.0675 57.6151 29.1625C58.5505 30.2302 59.6998 31.1062 61.063 31.7907C62.4261 32.4477 64.003 32.7762 65.7938 32.7762C67.4509 32.7762 69.0412 32.4203 70.5647 31.7085C72.1149 30.9693 73.4246 29.9428 74.4937 28.6286L76.8191 30.5998C75.4826 32.2423 73.8656 33.5428 71.9679 34.5009C70.0702 35.4317 68.0122 35.8971 65.7938 35.8971C63.4685 35.8971 61.4105 35.4865 59.6197 34.6652C57.8289 33.8166 56.3321 32.7078 55.1294 31.3389C53.9266 29.9427 53.0179 28.3549 52.4031 26.5754C51.7883 24.7959 51.481 22.9753 51.481 21.1137C51.481 19.2521 51.7883 17.4316 52.4031 15.6521C53.0179 13.8452 53.9266 12.2437 55.1294 10.8475C56.3321 9.42393 57.8289 8.28776 59.6197 7.43908C61.4105 6.56303 63.4685 6.125 65.7938 6.125C67.7984 6.125 69.6693 6.50828 71.4067 7.27482C73.144 8.04137 74.6675 9.1091 75.9771 10.4779Z"
        fill="black"
    />
    <path
        d="M123.157 14.0916C123.157 15.1867 122.889 16.2407 122.355 17.2536C121.82 18.2666 121.006 19.1563 119.909 19.9229C121.513 20.7168 122.676 21.7708 123.398 23.0849C124.119 24.399 124.466 25.7541 124.44 27.1503C124.44 28.6013 124.186 29.8469 123.678 30.8873C123.17 31.9275 122.476 32.7899 121.594 33.4744C120.738 34.1314 119.723 34.6241 118.546 34.9527C117.397 35.2539 116.168 35.4044 114.858 35.4044H106.479V6.4946H114.898C116.021 6.4946 117.076 6.67255 118.066 7.02844C119.081 7.35697 119.962 7.84975 120.711 8.50679C121.46 9.1638 122.048 9.97143 122.476 10.9296C122.93 11.8605 123.157 12.9144 123.157 14.0916ZM114.898 21.7298H109.766V32.2834H114.898C117.009 32.2834 118.6 31.7907 119.669 30.8051C120.765 29.8196 121.313 28.6013 121.313 27.1503C121.313 26.4933 121.179 25.8362 120.912 25.1792C120.644 24.5222 120.243 23.9473 119.709 23.4545C119.201 22.9343 118.546 22.5237 117.744 22.2225C116.943 21.894 115.993 21.7298 114.898 21.7298ZM109.766 18.5677H114.898C115.78 18.5677 116.542 18.4445 117.183 18.1982C117.825 17.9244 118.359 17.5684 118.786 17.1304C119.241 16.6924 119.576 16.2133 119.789 15.6931C120.003 15.1457 120.11 14.5844 120.11 14.0095C120.11 13.4346 120.003 12.887 119.789 12.3669C119.576 11.8193 119.241 11.3403 118.786 10.9296C118.359 10.519 117.825 10.1904 117.183 9.94404C116.542 9.67034 115.78 9.5334 114.898 9.5334H109.766V18.5677Z"
        fill="black"
    />
    <path
        d="M147 6.4946H131.15V35.3633H147V32.1603H134.438L134.478 22.551H146.84V19.3891H134.478V9.6566H147V6.4946Z"
        fill="black"
    />
    <path
        d="M14.3163 34.6567L24.4671 6.125H20.9487L12.2942 30.979L3.5993 6.125H0L10.2317 34.6567H14.3163Z"
        fill="url(#ID-0__c78d993c-db3a-4b97-8bef-746826276e75)"
    />
    <path
        d="M38.6602 23.0176L47.7596 34.5758H43.594L34.7374 23.0581H31.9065V34.5758H28.5498V6.24622H37.5683C38.9164 6.24622 40.17 6.40787 41.3294 6.73118C42.5156 7.02754 43.5401 7.52596 44.4029 8.22645C45.2656 8.90004 45.9396 9.77565 46.425 10.8533C46.9372 11.931 47.2068 13.2242 47.2338 14.733C47.2338 16.1339 47.0181 17.3463 46.5867 18.3702C46.1553 19.3939 45.5487 20.2426 44.7669 20.9162C43.985 21.5628 43.0683 22.0612 42.0168 22.4114C40.9923 22.7617 39.8734 22.9637 38.6602 23.0176ZM31.9065 20.1888H37.6087C39.55 20.1888 41.0732 19.7711 42.1786 18.9359C43.311 18.0738 43.8772 16.6728 43.8772 14.733C43.8772 12.7662 43.284 11.3787 42.0977 10.5704C40.9384 9.73523 39.4421 9.31759 37.6087 9.31759H31.9065V20.1888Z"
        fill="url(#ID-1__c3d7a482-d2f0-40f5-86e3-4a59b61b6b47)"
    />
    <defs>
        <linearGradient
            id="ID-0__c78d993c-db3a-4b97-8bef-746826276e75"
            x1="-0.485442"
            y1="18.4734"
            x2="46.6962"
            y2="19.5976"
            gradientUnits="userSpaceOnUse"
        >
            <stop stop-color="#293E7B" />
            <stop offset="1" stop-color="#00A39B" />
        </linearGradient>
        <linearGradient
            id="ID-1__c3d7a482-d2f0-40f5-86e3-4a59b61b6b47"
            x1="-0.485396"
            y1="18.4734"
            x2="46.6963"
            y2="19.5976"
            gradientUnits="userSpaceOnUse"
        >
            <stop stop-color="#293E7B" />
            <stop offset="1" stop-color="#00A39B" />
        </linearGradient>
    </defs>
</svg>
