<svg width="32" height="32" viewBox="0 0 32 32" fill="none" xmlns="http://www.w3.org/2000/svg">
    <path
        d="M5.33333 8.66667C5.33333 8.29848 5.6318 8 5.99999 8H26C26.3682 8 26.6667 8.29848 26.6667 8.66667C26.6667 9.03486 26.3682 9.33333 26 9.33333H5.99999C5.63181 9.33333 5.33333 9.03486 5.33333 8.66667Z"
        fill="#475166"
    />
    <path
        d="M5.33333 16C5.33333 15.6319 5.6318 15.3334 5.99999 15.3334H26C26.3682 15.3334 26.6667 15.6319 26.6667 16C26.6667 16.3682 26.3682 16.6667 26 16.6667H5.99999C5.63181 16.6667 5.33333 16.3682 5.33333 16Z"
        fill="#475166"
    />
    <path
        d="M5.33333 23.3333C5.33333 22.9651 5.63181 22.6666 6 22.6666H26C26.3682 22.6666 26.6667 22.9651 26.6667 23.3333C26.6667 23.7015 26.3682 24 26 24H6C5.63181 24 5.33333 23.7015 5.33333 23.3333Z"
        fill="#475166"
    />
    <circle cx="26" cy="6" r="6" fill="#FB7777" />
</svg>
