<svg width="32" height="32" viewBox="0 0 32 32" fill="none" xmlns="http://www.w3.org/2000/svg">
    <path
        d="M5.33334 8.66667C5.33334 8.29848 5.63182 8 6.00001 8H26C26.3682 8 26.6667 8.29848 26.6667 8.66667C26.6667 9.03486 26.3682 9.33333 26 9.33333H6.00001C5.63182 9.33333 5.33334 9.03486 5.33334 8.66667Z"
        fill="#475166"
    />
    <path
        d="M5.33334 15.9999C5.33334 15.6317 5.63182 15.3333 6.00001 15.3333H26C26.3682 15.3333 26.6667 15.6317 26.6667 15.9999C26.6667 16.3681 26.3682 16.6666 26 16.6666H6.00001C5.63182 16.6666 5.33334 16.3681 5.33334 15.9999Z"
        fill="#475166"
    />
    <path
        d="M5.33334 23.3334C5.33334 22.9652 5.63182 22.6667 6.00001 22.6667H26C26.3682 22.6667 26.6667 22.9652 26.6667 23.3334C26.6667 23.7016 26.3682 24.0001 26 24.0001H6.00001C5.63182 24.0001 5.33334 23.7016 5.33334 23.3334Z"
        fill="#475166"
    />
</svg>
