<svg width="24" height="24" viewBox="0 0 24 24" fill="none" xmlns="http://www.w3.org/2000/svg">
    <path
        d="M9.65821 4.70551L9.82442 5.17708L10.1927 5.04728L10.156 4.65855L9.65821 4.70551ZM14.3421 4.70551L13.8443 4.65855L13.8076 5.04728L14.1758 5.17708L14.3421 4.70551ZM18.2964 14.1392H17.7964V14.4711L18.1023 14.6L18.2964 14.1392ZM20.9419 16.9473L21.416 16.7885L21.416 16.7885L20.9419 16.9473ZM3.0581 16.9473L3.53221 17.1061L3.53221 17.1061L3.0581 16.9473ZM5.70386 14.1391L5.89796 14.5999L6.20386 14.471V14.1391H5.70386ZM10.0742 20.9441C10.0742 20.6679 9.85032 20.4441 9.57418 20.4441C9.29804 20.4441 9.07418 20.6679 9.07418 20.9441H10.0742ZM14.7964 20.9441C14.7964 20.6679 14.5725 20.4441 14.2964 20.4441C14.0202 20.4441 13.7964 20.6679 13.7964 20.9441H14.7964ZM8.78296 12.7413C8.78296 13.0174 9.00682 13.2413 9.28296 13.2413C9.5591 13.2413 9.78296 13.0174 9.78296 12.7413H8.78296ZM11.8549 7.54271C12.1269 7.4954 12.3091 7.23649 12.2618 6.96443C12.2145 6.69238 11.9556 6.51019 11.6835 6.5575L11.8549 7.54271ZM9.49199 4.23395C7.00152 5.1118 5.20386 7.40792 5.20386 10.1246H6.20386C6.20386 7.86899 7.69798 5.92661 9.82442 5.17708L9.49199 4.23395ZM9.13903 4.34965C9.13903 4.47158 9.14676 4.60767 9.16042 4.75247L10.156 4.65855C10.1443 4.53504 10.139 4.43162 10.139 4.34965H9.13903ZM12.0001 1.5C10.4223 1.5 9.13903 2.77354 9.13903 4.34965H10.139C10.139 3.33041 10.97 2.5 12.0001 2.5V1.5ZM14.8612 4.34965C14.8612 2.77354 13.578 1.5 12.0001 1.5V2.5C13.0303 2.5 13.8612 3.33041 13.8612 4.34965H14.8612ZM14.8398 4.75247C14.8535 4.60768 14.8612 4.47158 14.8612 4.34965H13.8612C13.8612 4.43161 13.8559 4.53504 13.8443 4.65855L14.8398 4.75247ZM18.7964 10.1246C18.7964 7.40792 16.9987 5.1118 14.5083 4.23395L14.1758 5.17708C16.3023 5.92661 17.7964 7.86899 17.7964 10.1246H18.7964ZM18.7964 14.1392V10.1246H17.7964V14.1392H18.7964ZM18.1023 14.6C19.2133 15.068 20.0867 15.9683 20.4678 17.1061L21.416 16.7885C20.9378 15.361 19.849 14.2507 18.4905 13.6784L18.1023 14.6ZM20.4678 17.1061C20.5974 17.493 20.3025 17.9476 19.7944 17.9476V18.9476C20.9184 18.9476 21.7835 17.8857 21.416 16.7885L20.4678 17.1061ZM19.7944 17.9476H4.20564V18.9476H19.7944V17.9476ZM4.20564 17.9476C3.69746 17.9476 3.40263 17.493 3.53221 17.1061L2.58399 16.7885C2.21649 17.8857 3.08161 18.9476 4.20564 18.9476V17.9476ZM3.53221 17.1061C3.91336 15.9682 4.78683 15.0679 5.89796 14.5999L5.50975 13.6783C4.15119 14.2506 3.06219 15.3609 2.58399 16.7885L3.53221 17.1061ZM5.20386 10.1246V14.1391H6.20386V10.1246H5.20386ZM9.07418 20.9441C9.07418 21.7764 9.49251 22.427 10.0469 22.8546C10.5928 23.2756 11.291 23.5 11.9353 23.5V22.5C11.5063 22.5 11.024 22.3453 10.6576 22.0627C10.2998 21.7868 10.0742 21.4094 10.0742 20.9441H9.07418ZM11.9353 23.5C12.5795 23.5 13.2778 23.2756 13.8236 22.8546C14.3781 22.427 14.7964 21.7764 14.7964 20.9441H13.7964C13.7964 21.4094 13.5708 21.7868 13.2129 22.0627C12.8466 22.3453 12.3643 22.5 11.9353 22.5V23.5ZM9.78296 12.7413V9.8948H8.78296V12.7413H9.78296ZM9.78296 9.8948C9.78296 8.75719 10.6381 7.75434 11.8549 7.54271L11.6835 6.5575C10.0206 6.84671 8.78296 8.23835 8.78296 9.8948H9.78296Z"
        fill="#475166"
    />
</svg>
