<svg width="24" height="24" viewBox="0 0 24 24" fill="none" xmlns="http://www.w3.org/2000/svg">
    <path
        d="M8.5 8C8.5 6.06614 10.0661 4.5 12 4.5C13.9339 4.5 15.5 6.06614 15.5 8C15.5 9.93386 13.9339 11.5 12 11.5C10.0661 11.5 8.5 9.93386 8.5 8ZM4.5 18C4.5 17.5186 4.73716 17.06 5.21364 16.6202C5.69352 16.1773 6.38208 15.7882 7.18469 15.4666C8.79071 14.8233 10.7275 14.5 12 14.5C13.2725 14.5 15.2093 14.8233 16.8153 15.4666C17.6179 15.7882 18.3065 16.1773 18.7864 16.6202C19.2628 17.06 19.5 17.5186 19.5 18V19.5H4.5V18Z"
        stroke="#475166"
    />
</svg>
