<svg width="24" height="24" viewBox="0 0 24 24" fill="none" xmlns="http://www.w3.org/2000/svg">
    <path
        d="M12 21.2395C11.8179 21.0266 11.5768 20.7397 11.2945 20.3919C10.6447 19.5913 9.77908 18.4706 8.91448 17.1891C8.04892 15.9062 7.19053 14.4713 6.55005 13.0417C5.90664 11.6055 5.5 10.2113 5.5 9C5.5 5.40614 8.40614 2.5 12 2.5C15.5939 2.5 18.5 5.40614 18.5 9C18.5 10.2113 18.0934 11.6055 17.4499 13.0417C16.8095 14.4713 15.9511 15.9062 15.0855 17.1891C14.2209 18.4706 13.3553 19.5913 12.7055 20.3919C12.4232 20.7397 12.1821 21.0266 12 21.2395Z"
        stroke="#475166"
    />
    <path
        d="M12 11C13.1046 11 14 10.1046 14 9C14 7.89543 13.1046 7 12 7C10.8954 7 10 7.89543 10 9C10 10.1046 10.8954 11 12 11Z"
        fill="#475166"
    />
</svg>
