<svg width="16" height="16" viewBox="0 0 16 16" fill="none" xmlns="http://www.w3.org/2000/svg">
    <path
        opacity="0.8"
        fill-rule="evenodd"
        clip-rule="evenodd"
        d="M8 16C12.4183 16 16 12.4183 16 8C16 3.58172 12.4183 0 8 0C3.58172 0 0 3.58172 0 8C0 12.4183 3.58172 16 8 16Z"
        fill="black"
        fill-opacity="0.54"
    />
    <path
        d="M6.94043 10.1973C6.94954 9.65495 7.01107 9.22656 7.125 8.91211C7.23893 8.59766 7.47135 8.24902 7.82227 7.86621L8.71777 6.94336C9.10059 6.51042 9.29199 6.04557 9.29199 5.54883C9.29199 5.07031 9.16667 4.69661 8.91602 4.42773C8.66536 4.1543 8.30078 4.01758 7.82227 4.01758C7.35742 4.01758 6.98372 4.14062 6.70117 4.38672C6.41862 4.63281 6.27734 4.96322 6.27734 5.37793H5.0127C5.02181 4.63965 5.28385 4.04492 5.79883 3.59375C6.31836 3.13802 6.99284 2.91016 7.82227 2.91016C8.68359 2.91016 9.35352 3.14258 9.83203 3.60742C10.3151 4.06771 10.5566 4.70117 10.5566 5.50781C10.5566 6.30534 10.1875 7.09147 9.44922 7.86621L8.7041 8.60449C8.37142 8.97363 8.20508 9.50456 8.20508 10.1973H6.94043ZM6.88574 12.3643C6.88574 12.1592 6.94727 11.9883 7.07031 11.8516C7.19792 11.7103 7.38477 11.6396 7.63086 11.6396C7.87695 11.6396 8.0638 11.7103 8.19141 11.8516C8.31901 11.9883 8.38281 12.1592 8.38281 12.3643C8.38281 12.5693 8.31901 12.7402 8.19141 12.877C8.0638 13.0091 7.87695 13.0752 7.63086 13.0752C7.38477 13.0752 7.19792 13.0091 7.07031 12.877C6.94727 12.7402 6.88574 12.5693 6.88574 12.3643Z"
        fill="white"
    />
</svg>
