<svg width="180" height="166" viewBox="0 0 180 166" fill="none" xmlns="http://www.w3.org/2000/svg">
    <g clip-path="url(#patrik)">
        <path
            d="M82.997 165.484C37.1591 165.484 4.57764e-05 128.439 4.57764e-05 82.7419C4.57764e-05 37.0448 37.1591 0 82.997 0C128.835 0 165.994 37.0448 165.994 82.7419C165.994 128.439 128.835 165.484 82.997 165.484Z"
            fill="#00CD8C"
        />
        <path
            d="M108.432 62.4397C102.198 56.2247 93.221 53.4901 84.4517 52.3714C75.6823 51.2527 66.7883 51.4599 58.0605 50.0926C52.9486 49.264 45.3014 46.8194 40.3556 45.3692L40.4388 72.5079L116.744 86.0151L164.664 55.8104L167.366 41.516L156.31 33.8094L154.689 35.3424L149.12 30.4948C141.806 37.9941 128.215 42.5518 120.277 49.3882C117.16 52.0814 114.625 55.3961 112.09 58.6693C111.051 60.0366 109.97 61.4453 109.638 63.144"
            fill="#EEF9F7"
        />
        <path
            d="M107.518 63.3512C101.284 57.1777 92.3898 54.6503 83.8698 53.573C73.8537 52.3715 63.6297 52.8687 53.7798 50.507C49.1665 49.3883 44.6364 47.9381 40.0647 46.6123C40.605 46.1979 41.1869 45.7836 41.7271 45.3278C41.7271 48.3939 41.7271 51.4185 41.7687 54.4846C41.7687 59.3737 41.8103 64.2213 41.8103 69.1105C41.8103 70.2291 41.8103 71.3478 41.8103 72.4665C41.4778 72.0522 41.1453 71.6379 40.8544 71.1821C43.3896 71.6379 45.9248 72.0936 48.46 72.508C54.5279 73.5852 60.6373 74.6625 66.7052 75.7398C74.0615 77.0242 81.4177 78.35 88.774 79.6345C95.0912 80.7532 101.409 81.8719 107.726 82.9906C109.845 83.3634 111.923 83.7363 114.043 84.1092C115.04 84.275 116.038 84.3993 116.994 84.6479C117.035 84.6479 117.077 84.6479 117.118 84.6893C116.786 84.7307 116.454 84.7722 116.121 84.8136C117.7 83.8192 119.321 82.8248 120.901 81.789C124.724 79.3859 128.506 76.9827 132.33 74.5796C136.943 71.6793 141.556 68.779 146.211 65.8372C150.201 63.3512 154.191 60.8238 158.139 58.3378C159.469 57.5092 160.757 56.6805 162.087 55.8519C162.711 55.479 163.334 55.0232 163.958 54.6917C163.999 54.6917 163.999 54.6503 164.041 54.6503C163.833 54.8989 163.625 55.1889 163.417 55.4375C164.207 51.2528 164.997 47.068 165.786 42.8833C165.911 42.3032 165.994 41.7232 166.119 41.1017C166.327 41.5989 166.534 42.0961 166.742 42.5933C163.5 40.3559 160.3 38.1185 157.058 35.8811C156.601 35.5496 156.144 35.2182 155.687 34.9281C156.227 34.8453 156.768 34.8038 157.266 34.721C156.726 35.2182 156.186 35.7154 155.645 36.254C155.105 36.7512 154.315 36.7512 153.775 36.254C151.905 34.6381 150.076 33.0222 148.206 31.4063C148.829 31.4063 149.453 31.4063 150.076 31.4063C145.588 36.0054 139.728 39.0714 134.158 42.1375C128.423 45.2864 122.688 48.4353 118.199 53.283C116.744 54.8575 115.414 56.5562 114.085 58.255C112.838 59.8709 111.383 61.4868 110.926 63.4755C110.552 65.1329 108.017 64.4285 108.391 62.7712C108.806 60.8653 109.97 59.3322 111.134 57.7992C112.339 56.2248 113.544 54.6503 114.833 53.1173C117.16 50.3412 119.737 47.9381 122.729 45.8665C128.174 42.0546 134.242 39.2786 139.935 35.7982C142.886 33.9752 145.795 32.0278 148.248 29.5418C148.788 29.0032 149.577 29.0861 150.118 29.5418C151.988 31.1577 153.817 32.7736 155.687 34.3895C155.064 34.3895 154.44 34.3895 153.817 34.3895C154.357 33.8923 154.897 33.3951 155.438 32.8565C155.853 32.4836 156.56 32.3178 157.017 32.6493C160.176 34.9281 163.376 37.1655 166.617 39.4029C167.075 39.7344 167.532 40.0658 167.989 40.3559C168.529 40.7288 168.695 41.226 168.612 41.8475C168.155 44.2506 167.698 46.6123 167.282 49.0154C166.991 50.6727 166.659 52.33 166.368 53.9459C166.243 54.6503 166.16 55.4375 165.952 56.1419C165.786 56.7219 165.287 56.9706 164.872 57.2191C164.373 57.5506 163.833 57.8821 163.334 58.1721C161.464 59.3322 159.594 60.5338 157.765 61.6939C152.113 65.2572 146.419 68.8204 140.767 72.3837C135.197 75.9055 129.628 79.3859 124.059 82.9077C122.355 83.9849 120.61 85.0622 118.906 86.1395C118.116 86.6367 117.368 87.341 116.37 87.1753C113.669 86.761 111.009 86.2223 108.349 85.7666C102.448 84.7307 96.5874 83.6949 90.6858 82.6591C83.5789 81.4161 76.472 80.1317 69.3651 78.8887C63.131 77.77 56.8969 76.6927 50.7043 75.574C47.3379 74.994 43.9714 74.3725 40.605 73.7924C40.4388 73.751 40.3141 73.751 40.1478 73.7095C39.566 73.6267 39.1919 72.9637 39.1919 72.4251C39.1919 69.3591 39.1919 66.3344 39.1504 63.2684C39.1504 58.3793 39.1088 53.5316 39.1088 48.6425C39.1088 47.5238 39.1088 46.4051 39.1088 45.2864C39.1088 44.4577 39.94 43.7948 40.7712 44.002C44.8442 45.2035 48.9172 46.488 53.0317 47.5652C57.6034 48.7254 62.2582 49.3054 66.9546 49.6783C76.846 50.3827 87.0285 50.3827 96.5043 53.6973C101.284 55.3961 105.772 57.8821 109.388 61.4453C110.552 62.6883 108.723 64.5528 107.518 63.3512Z"
            fill="black"
        />
        <path
            d="M100.577 67.4945C101.325 69.1104 102.988 70.2291 104.733 70.6435C106.479 71.0578 108.308 70.9335 110.095 70.602C111.757 70.312 113.461 69.7734 114.542 68.4889C115.747 67.0388 115.872 64.8014 114.791 63.2684C119.238 62.854 124.516 60.2852 128.506 58.255C142.055 51.3771 156.643 44.5406 170.399 38.1185C169.194 69.0276 166.867 101.635 163.085 132.337C160.3 132.71 157.557 133.456 154.814 134.202C142.387 137.641 128.672 141.95 116.495 146.176C116.495 147.005 116.495 147.875 116.121 148.621C115.414 150.154 113.544 150.734 111.882 151.024C108.141 151.687 103.57 151.314 101.533 148.123C90.8936 143.939 78.4669 140.251 67.3701 137.475C62.5491 136.274 57.728 135.196 52.9485 133.87C46.0494 131.964 39.3166 129.52 32.5422 127.075C31.8772 116.8 35.4514 59.7051 35.3267 50.507C39.0672 51.6671 42.5583 53.5316 46.2988 54.6089C50.3717 55.8933 85.1997 63.4341 100.577 67.4945Z"
            fill="#8330EC"
        />
        <path
            d="M101.699 66.8316C103.237 69.9391 107.185 69.8977 110.136 69.2762C111.425 68.9861 112.962 68.5718 113.752 67.3703C114.459 66.293 114.334 64.9671 113.669 63.9313C113.046 63.0198 113.877 62.0668 114.791 61.9425C118.241 61.5696 121.565 60.1195 124.683 58.6693C128.091 57.0534 131.457 55.3132 134.823 53.6145C142.221 49.9683 149.661 46.4051 157.1 42.8833C161.298 40.9359 165.495 38.9886 169.693 36.9998C170.566 36.5855 171.729 37.0412 171.688 38.1185C171.189 50.3827 170.566 62.6054 169.734 74.8282C168.903 87.1753 167.906 99.5223 166.659 111.828C165.952 118.664 165.204 125.501 164.373 132.337C164.29 132.835 163.999 133.539 163.417 133.622C160.217 134.036 157.1 134.948 153.983 135.818C150.991 136.646 147.957 137.517 144.964 138.428C138.896 140.21 132.87 142.116 126.885 144.063C123.519 145.182 120.194 146.3 116.828 147.46C117.16 147.046 117.493 146.632 117.783 146.176C117.783 147.295 117.7 148.455 117.16 149.449C116.744 150.236 116.038 150.858 115.248 151.272C113.627 152.184 111.674 152.432 109.845 152.557C106.271 152.805 102.406 151.894 100.328 148.786C100.577 148.993 100.868 149.201 101.118 149.408C92.6391 146.093 83.9529 143.359 75.1836 140.914C66.0402 138.387 56.689 136.564 47.6288 133.705C42.3921 132.089 37.2801 130.224 32.1266 128.36C31.5447 128.153 31.2122 127.697 31.1707 127.075C30.9213 123.554 31.0876 119.949 31.2122 116.427C31.3785 110.709 31.5863 104.992 31.8772 99.2738C32.1681 92.8102 32.4591 86.3466 32.7915 79.883C33.0825 74.0824 33.3734 68.2818 33.6228 62.4811C33.789 58.7522 33.9968 54.9817 33.9968 51.2528C33.9968 51.0042 33.9968 50.7556 33.9968 50.507C33.9968 49.6783 34.8696 48.974 35.6593 49.2225C39.1504 50.2998 42.4337 51.9986 45.9248 53.1173C46.8807 53.4073 47.8366 53.6559 48.7925 53.9045C51.9511 54.6917 55.1513 55.3961 58.3099 56.1419C67.8689 58.3378 77.3863 60.4924 86.9453 62.7297C91.6417 63.8484 96.3381 64.9671 100.993 66.2101C102.614 66.6245 101.949 69.1933 100.286 68.7375C91.3092 66.3759 82.2489 64.3042 73.1887 62.2325C65.0843 60.3681 56.98 58.5864 48.9172 56.6391C47.9613 56.3905 47.0054 56.1833 46.0495 55.9347C42.2674 54.8575 38.7347 52.993 34.9943 51.7914C35.5346 51.3771 36.1164 50.9627 36.6567 50.507C36.6983 53.9045 36.4905 57.302 36.3658 60.6581C36.1164 66.293 35.8671 71.9279 35.5761 77.5628C35.2852 84.0264 34.9527 90.4899 34.6618 96.9535C34.4124 102.837 34.1631 108.72 33.9552 114.604C33.8306 118.499 33.6643 122.393 33.8306 126.288C33.8306 126.578 33.8721 126.827 33.8721 127.117C33.5396 126.702 33.2072 126.288 32.9162 125.832C38.9841 128.028 45.052 130.224 51.2446 132.047C57.4371 133.87 63.7544 135.196 69.9885 136.771C75.8486 138.262 81.6671 139.92 87.444 141.784C90.3533 142.737 93.3041 143.69 96.1718 144.726C97.5433 145.223 98.9564 145.72 100.328 146.259C100.951 146.507 101.658 146.673 102.198 147.005C102.697 147.295 103.071 148.041 103.528 148.455C105.315 149.988 107.975 150.112 110.178 149.946C111.342 149.864 112.547 149.698 113.627 149.201C114.126 148.993 114.583 148.662 114.874 148.206C115.248 147.626 115.207 146.839 115.207 146.176C115.207 145.555 115.622 145.099 116.163 144.892C128.007 140.748 140.018 137.019 152.071 133.58C155.562 132.586 159.095 131.509 162.711 131.053C162.378 131.467 162.046 131.882 161.755 132.337C163.251 120.156 164.498 107.975 165.537 95.7519C166.576 83.4049 167.449 71.0578 168.114 58.7107C168.488 51.8328 168.82 44.9549 169.07 38.1185C169.734 38.4914 170.399 38.8643 171.064 39.2372C163.5 42.8004 155.895 46.3222 148.372 49.9683C144.632 51.75 140.891 53.573 137.151 55.4375C133.577 57.1777 130.044 59.0422 126.47 60.741C122.771 62.4811 118.947 64.1385 114.833 64.5942C115.207 63.9313 115.581 63.2684 115.955 62.6054C117.077 64.3042 117.16 66.5416 116.246 68.3646C115.29 70.2291 113.253 71.2235 111.3 71.7207C107.144 72.7151 101.658 72.508 99.4551 68.1575C98.6655 66.6245 100.951 65.2986 101.699 66.8316Z"
            fill="black"
        />
        <path
            d="M117.95 65.5058C117.908 75.9883 117.908 86.4709 117.867 96.9535C117.825 107.436 117.825 117.919 117.783 128.401C117.783 134.326 117.742 140.251 117.742 146.217C117.742 147.916 115.082 147.916 115.124 146.217C115.165 135.735 115.165 125.252 115.207 114.77C115.248 104.287 115.248 93.8046 115.29 83.322C115.29 77.3971 115.331 71.4721 115.331 65.5058C115.331 63.807 117.95 63.807 117.95 65.5058Z"
            fill="black"
        />
        <path
            d="M70.1963 113.568C64.9596 121.731 54.9019 125.998 45.426 126.205C36.2826 126.412 27.3886 122.683 21.1129 116.096C17.7049 112.532 15.1281 108.265 13.5904 103.583C13.3826 102.92 13.8397 102.133 14.5047 101.967C15.2113 101.76 15.9178 102.215 16.1256 102.878C18.5777 110.419 24.23 116.841 31.3369 120.446C39.0256 124.341 48.5015 124.548 56.5643 121.192C61.0529 119.327 65.2505 116.303 67.8689 112.201C68.2429 111.621 69.0326 111.372 69.656 111.745C70.321 112.118 70.5703 112.988 70.1963 113.568Z"
            fill="black"
        />
        <path
            d="M69.0741 111.041C69.2404 111.041 69.0741 111.041 68.991 111.082C69.2404 110.999 68.8663 111.206 68.991 111.082C69.0326 111.082 69.1988 110.958 69.0741 111.041C68.9079 111.165 69.0742 111.041 69.1157 110.999C69.3651 110.751 69.5729 110.502 69.7807 110.254C69.9885 110.005 70.1963 109.715 70.4041 109.466C70.4456 109.383 70.4872 109.342 70.5703 109.259C70.8197 108.969 70.4872 109.383 70.6119 109.176C70.7366 109.052 70.8197 108.886 70.9444 108.762C71.7756 107.643 72.6068 106.483 73.3549 105.282C73.7289 104.702 74.5602 104.411 75.142 104.826C75.7238 105.199 76.0148 105.986 75.5992 106.607C74.768 107.933 73.8536 109.218 72.8977 110.461C72.399 111.124 71.8587 111.787 71.3184 112.408C70.7366 113.071 69.9885 113.734 69.0326 113.651C68.3261 113.61 67.6611 113.071 67.7026 112.325C67.7858 111.662 68.3676 110.958 69.0741 111.041Z"
            fill="black"
        />
        <path
            d="M67.5364 112.449C67.287 108.472 67.5364 104.494 68.2845 100.6C68.4092 99.8952 69.2819 99.5224 69.9053 99.6881C70.6534 99.8952 70.9444 100.6 70.8197 101.304C70.1131 104.992 69.9469 108.721 70.1547 112.449C70.1963 113.154 69.5313 113.775 68.8248 113.775C68.0767 113.734 67.5779 113.154 67.5364 112.449Z"
            fill="black"
        />
        <path
            d="M67.4533 112.905C67.4533 113.03 67.4533 112.905 67.4533 112.864C67.4533 112.781 67.4117 112.698 67.4117 112.615C67.3702 112.449 67.3286 112.284 67.2455 112.077C67.2039 111.994 67.2039 111.911 67.1623 111.828C67.2455 111.994 67.1208 111.745 67.1208 111.704C67.0377 111.538 66.9545 111.372 66.8714 111.206C66.4974 110.544 66.0818 109.881 65.6662 109.218C64.7103 107.643 64.0453 106.027 63.9206 104.163C63.8791 103.458 64.5856 102.837 65.2506 102.837C65.9986 102.878 66.4974 103.417 66.5805 104.163C66.6221 104.536 66.6636 104.867 66.7467 105.24C66.7883 105.489 66.8714 105.696 66.9545 105.944C66.9961 106.027 67.0377 106.152 67.0792 106.234C67.1623 106.483 67.0377 106.11 67.1208 106.317C67.4533 107.022 67.8689 107.685 68.2429 108.306C69.1157 109.756 69.9054 111.165 70.1132 112.822C70.1963 113.527 69.4482 114.148 68.7832 114.148C67.9936 114.19 67.5364 113.651 67.4533 112.905Z"
            fill="black"
        />
        <path
            d="M67.9104 113.9C67.1208 113.983 66.248 114.024 65.4583 113.734C64.544 113.402 63.879 112.822 63.4218 111.994C63.2556 111.704 63.0894 111.414 62.9231 111.124C62.8816 111.041 62.84 110.999 62.7984 110.916C62.9647 111.165 62.7569 110.916 62.7569 110.875C62.6322 110.751 62.5075 110.626 62.3828 110.544C62.5075 110.668 62.4659 110.626 62.3413 110.544C62.2581 110.502 62.175 110.461 62.1335 110.419C61.9672 110.336 61.8425 110.254 61.6763 110.171C61.3438 110.005 60.9698 109.839 60.5957 109.673C59.9723 109.383 59.7645 108.43 60.1385 107.892C60.5542 107.229 61.2607 107.105 61.9257 107.436C62.5906 107.726 63.214 108.016 63.7959 108.43C64.4609 108.928 65.0012 109.508 65.4168 110.254C65.583 110.544 65.7077 110.792 65.8739 111.082C66.0402 111.331 65.7492 110.958 65.8739 111.082C65.9155 111.124 65.9986 111.248 66.0402 111.248C65.9986 111.206 65.9571 111.206 65.9155 111.165C65.9571 111.206 65.9986 111.206 66.0402 111.248C66.0817 111.289 66.3311 111.414 66.0402 111.289C66.0817 111.289 66.4973 111.455 66.5389 111.414C66.5389 111.414 66.2895 111.372 66.4973 111.414C66.622 111.414 66.7052 111.414 66.8298 111.414C67.2039 111.414 67.5364 111.372 67.9104 111.372C68.6169 111.289 69.2404 112.035 69.2404 112.698C69.1988 113.361 68.6585 113.817 67.9104 113.9Z"
            fill="black"
        />
        <path
            d="M167.116 71.4307C168.405 71.4307 169.485 72.0936 170.524 72.798C171.438 73.4609 172.353 74.1238 173.184 74.8696C174.805 76.3198 176.26 78.0185 177.382 79.883C179.792 83.8606 180.748 88.874 179.377 93.3902C178.712 95.669 177.506 97.7407 176.218 99.688C175.013 101.553 173.683 103.293 172.187 104.95C169.277 108.223 165.745 111.041 161.755 112.864C156.934 115.06 151.531 115.93 146.294 114.77C145.588 114.604 145.172 113.817 145.38 113.154C145.588 112.449 146.294 112.077 147.001 112.242C155.105 114.024 163.293 110.253 168.945 104.577C171.771 101.718 174.306 98.3622 176.01 94.7575C177.756 91.0285 177.756 86.7609 176.052 83.0319C175.137 81.0017 173.849 79.2201 172.27 77.6456C171.522 76.8998 170.774 76.1955 169.942 75.574C169.485 75.2425 169.028 74.911 168.571 74.5796C168.114 74.2895 167.698 73.9995 167.158 73.9995C165.412 74.041 165.412 71.4307 167.116 71.4307Z"
            fill="black"
        />
        <path
            d="M145.172 112.035C145.214 111.869 145.255 111.704 145.297 111.496C145.255 111.621 145.297 111.538 145.297 111.455C145.297 111.372 145.297 111.289 145.297 111.165C145.297 110.999 145.297 110.792 145.297 110.626C145.297 110.544 145.255 110.419 145.297 110.585C145.297 110.502 145.255 110.419 145.255 110.336C145.214 110.171 145.172 110.005 145.13 109.798C145.089 109.715 145.089 109.632 145.047 109.549C145.089 109.673 145.047 109.549 145.006 109.508C144.923 109.342 144.84 109.176 144.756 109.052C144.715 108.969 144.673 108.886 144.59 108.845C144.507 108.72 144.549 108.803 144.507 108.72C143.925 108.016 143.343 107.395 143.011 106.566C142.678 105.737 142.512 104.826 142.595 103.956C142.678 103.293 143.136 102.588 143.925 102.63C144.59 102.671 145.338 103.21 145.255 103.956C145.172 104.701 145.255 105.282 145.588 105.862C145.795 106.193 145.962 106.359 146.253 106.69C146.544 107.063 146.834 107.395 147.084 107.809C147.957 109.301 148.206 111.124 147.749 112.781C147.583 113.444 146.793 113.9 146.128 113.692C145.421 113.444 145.006 112.739 145.172 112.035Z"
            fill="black"
        />
        <path
            d="M146.086 114.853C145.006 114.397 144.133 113.734 143.219 113.071C142.263 112.408 141.348 111.745 140.393 111.082C138.772 109.922 137.068 108.679 136.486 106.649C136.278 105.986 136.735 105.199 137.4 105.033C138.107 104.867 138.813 105.24 139.021 105.945C139.063 106.069 139.104 106.152 139.104 106.276C139.187 106.483 139.021 106.11 139.146 106.317C139.229 106.483 139.312 106.649 139.437 106.815C139.437 106.856 139.644 107.105 139.561 106.98C139.478 106.897 139.644 107.063 139.686 107.105C139.811 107.27 139.977 107.395 140.102 107.519C140.268 107.643 140.393 107.809 140.559 107.933C140.642 108.016 140.725 108.058 140.808 108.14C140.683 108.058 140.808 108.14 140.85 108.182C141.224 108.472 141.598 108.721 141.972 109.011C142.803 109.591 143.634 110.171 144.466 110.792C145.172 111.289 146.045 112.077 146.793 112.367C147.458 112.657 147.915 113.237 147.707 113.983C147.541 114.563 146.751 115.143 146.086 114.853Z"
            fill="black"
        />
        <path
            d="M145.629 114.853C142.429 115.018 139.187 115.101 136.029 114.563C135.322 114.438 134.948 113.568 135.114 112.947C135.322 112.201 136.029 111.911 136.735 112.035C139.686 112.574 142.678 112.408 145.671 112.242C146.377 112.201 147.001 112.864 147.001 113.568C146.959 114.273 146.336 114.811 145.629 114.853Z"
            fill="black"
        />
        <path
            d="M147.666 116.054C146.751 116.303 145.962 116.8 145.089 117.256C144.133 117.753 143.177 118.167 142.18 118.499C141.224 118.83 140.268 119.079 139.27 119.286C138.19 119.493 137.151 119.617 136.153 119.079C135.53 118.747 135.322 117.877 135.696 117.297C136.07 116.676 136.86 116.51 137.483 116.841C137.525 116.883 137.608 116.883 137.733 116.883C137.899 116.883 138.024 116.883 138.107 116.841C138.564 116.8 139.021 116.676 139.478 116.551C140.351 116.344 141.182 116.096 142.013 115.764C143.717 115.101 145.214 114.024 146.959 113.527C148.58 113.071 149.287 115.598 147.666 116.054Z"
            fill="black"
        />
        <path
            d="M122.563 43.0904C117.991 43.3804 113.586 44.7892 108.973 44.7892C107.269 44.7892 107.269 42.1789 108.973 42.1789C113.544 42.1374 117.991 40.7701 122.563 40.4801C123.269 40.4387 123.893 41.1016 123.893 41.806C123.893 42.5103 123.269 43.0075 122.563 43.0904Z"
            fill="black"
        />
        <path
            d="M71.1937 44.9135C66.1233 44.6649 61.0944 44.1677 56.1071 43.339C55.4006 43.2147 55.0266 42.3446 55.1928 41.7231C55.4006 40.9773 56.1071 40.6873 56.8137 40.8116C61.5932 41.5574 66.3727 42.0546 71.1937 42.3032C71.9003 42.3446 72.5237 42.8832 72.5237 43.629C72.5237 44.292 71.9003 44.9549 71.1937 44.9135Z"
            fill="black"
        />
        <path
            d="M67.3702 44.3749C67.0377 45.4936 66.0818 46.4051 64.9596 46.6951C63.8375 46.9851 62.5491 46.6951 61.7179 45.9079C60.8451 45.1207 60.4295 43.9191 60.6373 42.759"
            fill="black"
        />
        <path
            d="M68.6586 44.7063C68.2845 45.825 67.5364 46.8194 66.5389 47.4409C65.4999 48.1038 64.2115 48.2696 63.0063 48.021C61.801 47.7724 60.7204 46.9851 60.0555 45.9907C59.3489 44.9549 59.1827 43.6705 59.3489 42.4275C59.4736 41.7646 60.3464 41.3088 60.9698 41.516C61.7179 41.7646 62.0088 42.3861 61.8841 43.1319C61.9257 42.8004 61.8841 43.1319 61.8841 43.1733C61.8841 43.2562 61.8841 43.3805 61.8841 43.4633C61.8841 43.5048 61.8841 43.5462 61.8841 43.5462C61.8841 43.7119 61.8841 43.6705 61.8841 43.5048C61.8841 43.5876 61.9257 43.6705 61.9257 43.7534C61.9672 43.8362 61.9673 43.9605 62.0088 44.0434C62.0504 44.1677 62.0504 44.2091 62.0088 44.0434C62.0504 44.2506 62.2166 44.4163 62.2997 44.582C62.466 44.872 62.1335 44.4163 62.3413 44.6234C62.4244 44.7063 62.466 44.7892 62.5491 44.8306C62.5907 44.872 62.7985 45.0378 62.6322 44.9135C62.5075 44.7892 62.7569 44.9963 62.7985 45.0378C62.8816 45.0792 62.9647 45.1206 63.0063 45.1621C63.0478 45.2035 63.131 45.2449 63.1725 45.2449C63.131 45.2449 63.0894 45.2035 63.0478 45.2035C63.131 45.3278 63.505 45.3278 63.6297 45.3692C63.9206 45.4521 63.3803 45.3692 63.6712 45.3692C63.7544 45.3692 63.8375 45.3692 63.9206 45.3692C64.0037 45.3692 64.1284 45.3692 64.2115 45.3692C64.2531 45.3692 64.2947 45.3692 64.3778 45.3692C64.3362 45.3692 64.2947 45.3692 64.2115 45.3692C64.2531 45.3692 64.7934 45.2035 64.7934 45.2035C64.6271 45.2864 64.6271 45.2864 64.7103 45.2449C64.7518 45.2449 64.7934 45.2035 64.8349 45.1621C64.9181 45.1206 65.0012 45.0792 65.0843 45.0378C65.1674 44.9963 65.209 44.9549 65.2921 44.9135C65.3752 44.872 65.3337 44.872 65.209 44.9549C65.2506 44.9135 65.2921 44.872 65.3337 44.872C65.4168 44.7892 65.6662 44.6234 65.7077 44.4991C65.6246 44.6234 65.583 44.6649 65.6662 44.582C65.7077 44.5406 65.7077 44.4991 65.7493 44.4577C65.7909 44.3749 65.8324 44.292 65.9155 44.2091C65.9571 44.1262 65.9986 44.0434 66.0402 43.9605C65.9986 44.1677 65.9986 44.0434 66.0402 43.9191C66.248 43.2562 66.9546 42.759 67.6611 43.0076C68.3676 43.2976 68.8664 44.002 68.6586 44.7063Z"
            fill="black"
        />
        <path
            d="M118.49 43.2976C118.532 44.2506 118.532 45.245 118.074 46.0322C117.368 47.2338 115.83 47.5652 114.417 47.6067C113.503 47.6067 112.547 47.5238 111.882 46.9023C110.884 46.0322 110.926 44.4992 110.178 43.4219"
            fill="black"
        />
        <path
            d="M119.82 43.2976C119.861 44.7892 119.737 46.3637 118.615 47.4823C117.576 48.4767 116.121 48.8496 114.749 48.8911C113.295 48.9739 111.674 48.7253 110.718 47.5238C110.261 46.9437 109.97 46.2808 109.721 45.5764C109.638 45.2864 109.554 44.9964 109.43 44.7063C109.388 44.6235 109.388 44.5406 109.347 44.4992C109.388 44.6235 109.388 44.6235 109.347 44.4992C109.263 44.3749 109.18 44.2091 109.097 44.0848C108.723 43.5048 108.973 42.5932 109.554 42.3032C110.219 41.9717 110.967 42.1375 111.342 42.759C111.674 43.2562 111.882 43.8362 112.048 44.3749C112.131 44.6235 112.214 44.8306 112.256 45.0792C112.297 45.2035 112.339 45.2864 112.381 45.4107C112.256 45.1621 112.422 45.4521 112.464 45.535C112.464 45.5764 112.671 45.9079 112.588 45.7836C112.505 45.6593 112.713 45.9079 112.755 45.9493C112.838 45.9908 112.796 45.9908 112.713 45.9493C112.796 45.9908 112.838 46.0322 112.921 46.0736C113.129 46.1979 112.796 46.0736 113.087 46.1565C113.212 46.1979 113.336 46.2394 113.461 46.2394C113.835 46.3222 113.253 46.2394 113.627 46.2808C113.918 46.3222 114.168 46.3222 114.459 46.3222C114.708 46.3222 114.957 46.2808 115.207 46.2808C114.957 46.3222 115.248 46.2808 115.331 46.2394C115.456 46.1979 115.581 46.1979 115.664 46.1565C115.789 46.1151 115.872 46.0736 115.996 46.0736C116.287 45.9908 115.872 46.1565 116.121 46.0322C116.204 45.9908 116.329 45.9493 116.412 45.8665C116.495 45.825 116.537 45.7836 116.62 45.7422C116.537 45.825 116.495 45.825 116.578 45.7836C116.661 45.7007 116.744 45.6179 116.828 45.535C116.869 45.4521 116.869 45.4936 116.786 45.5764C116.828 45.535 116.869 45.4521 116.911 45.3693C116.952 45.3278 117.077 44.9964 116.994 45.2035C117.035 45.0792 117.077 44.9549 117.118 44.8306C117.202 44.4577 117.118 45.0378 117.16 44.6649C117.16 44.5406 117.16 44.4163 117.202 44.2506C117.202 43.9191 117.202 43.6291 117.202 43.2976C117.16 42.5932 117.825 41.9717 118.532 41.9717C119.238 42.0132 119.778 42.5518 119.82 43.2976Z"
            fill="black"
        />
        <path
            d="M100.993 67.9089C101.99 78.4743 102.988 89.0397 103.362 99.6466C103.736 110.005 103.861 120.405 103.653 130.721C103.528 136.564 103.279 142.364 102.78 148.165C102.738 148.869 102.198 149.491 101.45 149.491C100.785 149.491 100.079 148.869 100.12 148.165C100.993 137.807 101.159 127.365 101.034 116.966C100.951 106.525 100.702 96.0834 99.9123 85.6837C99.4551 79.7587 98.9148 73.7924 98.333 67.8674C98.2498 67.1631 98.9979 66.5416 99.6629 66.5416C100.453 66.583 100.91 67.2045 100.993 67.9089Z"
            fill="black"
        />
        <path
            d="M162.96 36.7512C158.555 41.8474 152.736 45.4521 146.627 48.2281C140.185 51.1699 133.41 53.283 126.844 55.9761C123.145 57.5091 119.487 59.2493 116.079 61.4038C114.625 62.3154 113.336 60.0366 114.75 59.125C120.859 55.2303 127.675 52.7443 134.449 50.2583C140.725 47.9381 147.042 45.5764 152.736 41.9717C155.812 40.0244 158.679 37.6627 161.048 34.8867C161.505 34.348 162.42 34.4309 162.919 34.8867C163.459 35.4253 163.417 36.2125 162.96 36.7512Z"
            fill="black"
        />
        <path
            d="M157.349 34.5967C154.856 37.0413 151.863 38.8643 148.788 40.5631C145.463 42.3861 142.097 44.1678 138.772 45.9908C135.405 47.8139 132.039 49.5955 128.672 51.46C125.514 53.2002 122.563 55.189 119.861 57.5921C116.62 60.4924 113.544 63.517 110.427 66.5002C109.18 67.6603 107.352 65.7958 108.557 64.6357C111.342 61.984 114.085 59.2908 116.911 56.6806C119.612 54.1531 122.521 51.9157 125.722 50.0513C129.005 48.1453 132.371 46.4051 135.696 44.6235C139.104 42.8005 142.512 40.936 145.92 39.1129C149.328 37.2899 152.736 35.4254 155.479 32.7322C156.684 31.5721 158.555 33.4366 157.349 34.5967Z"
            fill="black"
        />
        <path
            d="M107.85 66.7902C104.318 64.4699 100.453 62.6469 96.4212 61.4868C92.1404 60.2438 87.7765 59.8294 83.3711 59.6223C78.6747 59.4151 73.9783 59.2494 69.3651 58.1721C65.0012 57.1777 60.9282 55.3547 56.8553 53.573C52.7407 51.75 48.3768 49.9683 43.8051 50.0926C42.1012 50.1341 42.1012 47.5238 43.8051 47.4824C48.169 47.3581 52.2836 48.8082 56.2734 50.507C60.2632 52.2057 64.1284 54.1117 68.3676 55.2718C72.8977 56.5148 77.511 56.8463 82.2074 57.012C86.8206 57.2191 91.3923 57.4677 95.8809 58.6279C100.619 59.8709 105.149 61.9011 109.263 64.5942C109.845 64.9671 110.095 65.7544 109.721 66.3759C109.305 66.9145 108.432 67.2045 107.85 66.7902Z"
            fill="black"
        />
        <path
            d="M117.202 127.324C115.498 127.324 115.498 124.714 117.202 124.714C118.864 124.672 118.864 127.324 117.202 127.324Z"
            fill="black"
        />
    </g>
    <defs>
        <clipPath id="patrik">
            <rect width="180" height="165.484" fill="white" transform="matrix(-1 0 0 1 180 0)" />
        </clipPath>
    </defs>
</svg>
