<svg width="24" height="24" viewBox="0 0 24 24" fill="none" xmlns="http://www.w3.org/2000/svg">
    <path
        d="M18.9339 12.918L18.8987 13.1993L19.122 13.3739L21.2249 15.0183C21.2248 15.0206 21.2242 15.0239 21.2222 15.0282L19.2271 18.4798L19.2271 18.4798L19.227 18.4799C19.2246 18.4797 19.2213 18.4793 19.2169 18.4782L16.7463 17.486L16.4852 17.3811L16.26 17.55C15.7658 17.9206 15.2427 18.2369 14.6804 18.4673L14.4157 18.5758L14.3751 18.859L13.9963 21.5H10.0036L9.62493 18.859L9.58432 18.5758L9.3196 18.4673C8.75381 18.2355 8.23223 17.9286 7.74485 17.5537L7.51857 17.3796L7.25365 17.486L4.7787 18.48C4.77607 18.4799 4.77402 18.4796 4.77255 18.4792L2.77774 15.0282C2.77576 15.0239 2.77519 15.0206 2.77509 15.0183L4.878 13.3739L5.10129 13.1993L5.06613 12.918C5.02741 12.6082 4.99999 12.301 4.99999 12C4.99999 11.699 5.02741 11.3918 5.06613 11.082L5.10129 10.8007L4.878 10.6261L2.77299 8.98003L4.77288 5.52022L4.77291 5.52024L4.77298 5.52011C4.77542 5.52029 4.77873 5.52073 4.78311 5.52179L7.25365 6.51398L7.51483 6.61887L7.73999 6.45C8.23414 6.07939 8.75732 5.7631 9.3196 5.53265L9.58432 5.42416L9.62493 5.14097L10.0036 2.5H13.9963L14.3751 5.14097L14.4157 5.42416L14.6804 5.53265C15.2462 5.76454 15.7678 6.0714 16.2551 6.44631L16.4814 6.62037L16.7463 6.51398L19.2213 5.52002C19.2239 5.52011 19.226 5.52044 19.2274 5.5208L21.2222 8.97181C21.2242 8.97608 21.2248 8.97944 21.2249 8.98168L19.122 10.6261L18.8987 10.8007L18.9339 11.082C18.9726 11.3923 19 11.6893 19 12C19 12.3107 18.9726 12.6077 18.9339 12.918Z"
        stroke="#475166"
    />
</svg>
