<svg width="24" height="24" viewBox="0 0 24 24" fill="none" xmlns="http://www.w3.org/2000/svg">
    <path
        d="M12 22C17.5135 22 22 17.5135 22 12C22 6.48649 17.5135 2 12 2C6.48649 2 2 6.48649 2 12C2 17.5135 6.48649 22 12 22ZM12 3.17614C16.8649 3.17614 20.8239 7.13514 20.8239 12C20.8239 16.8649 16.8649 20.8239 12 20.8239C7.13513 20.8239 3.17614 16.8649 3.17614 12C3.17614 7.13514 7.13513 3.17614 12 3.17614Z"
        fill="#475166"
    />
    <path
        d="M14.7102 10.63C14.0587 10.3941 13.7218 9.67487 13.9576 9.02343C14.1935 8.37199 14.9127 8.03507 15.5642 8.2709C16.2156 8.50673 16.5525 9.226 16.3167 9.87744C16.0809 10.5289 15.3616 10.8658 14.7102 10.63Z"
        fill="#475166"
    />
    <path
        d="M7.62431 9.64497C7.51678 8.96055 7.98445 8.31856 8.66887 8.21104C9.35328 8.10352 9.99528 8.57118 10.1028 9.2556C10.2103 9.94001 9.74266 10.582 9.05824 10.6895C8.37382 10.7971 7.73183 10.3294 7.62431 9.64497Z"
        fill="#475166"
    />
    <path
        d="M12 17.8733C14.1156 17.8733 16.0895 16.7344 17.1501 14.9003C17.3122 14.6188 17.2172 14.2591 16.9357 14.0969C16.6543 13.9348 16.2945 14.0298 16.1324 14.3113C15.2806 15.7819 13.6981 16.6971 12 16.6971C10.302 16.6971 8.71951 15.7838 7.86769 14.3113C7.70553 14.0298 7.34579 13.9348 7.06434 14.0969C6.78288 14.2591 6.68782 14.6188 6.84999 14.9003C7.91056 16.7344 9.88447 17.8733 12 17.8733Z"
        fill="#475166"
    />
</svg>
