<svg width="24" height="24" viewBox="0 0 24 24" fill="none" xmlns="http://www.w3.org/2000/svg">
    <mask id="path-1-inside-1" fill="white">
        <path
            d="M14 18.5C14 18.2239 13.7761 18 13.5 18H4.5C4.22386 18 4 18.2239 4 18.5C4 18.7761 4.22386 19 4.5 19H13.5C13.7761 19 14 18.7761 14 18.5ZM20 10.5C20 10.2239 19.7761 10 19.5 10H4.5C4.22386 10 4 10.2239 4 10.5C4 10.7761 4.22386 11 4.5 11H19.5C19.7761 11 20 10.7761 20 10.5ZM4 14.5C4 14.7761 4.22386 15 4.5 15H19.5C19.7761 15 20 14.7761 20 14.5C20 14.2239 19.7761 14 19.5 14H4.5C4.22386 14 4 14.2239 4 14.5ZM4.5 6C4.22386 6 4 6.22386 4 6.5C4 6.77614 4.22386 7 4.5 7H19.5C19.7761 7 20 6.77614 20 6.5C20 6.22386 19.7761 6 19.5 6H4.5Z"
        />
    </mask>
    <path
        d="M13.5 17H4.5V19H13.5V17ZM4.5 20H13.5V18H4.5V20ZM19.5 9H4.5V11H19.5V9ZM4.5 12H19.5V10H4.5V12ZM4.5 16H19.5V14H4.5V16ZM19.5 13H4.5V15H19.5V13ZM4.5 8H19.5V6H4.5V8ZM19.5 5H4.5V7H19.5V5ZM21 6.5C21 5.67157 20.3284 5 19.5 5V7C19.2239 7 19 6.77614 19 6.5H21ZM19.5 8C20.3284 8 21 7.32843 21 6.5H19C19 6.22386 19.2239 6 19.5 6V8ZM3 6.5C3 7.32843 3.67157 8 4.5 8V6C4.77614 6 5 6.22386 5 6.5H3ZM5 6.5C5 6.77614 4.77614 7 4.5 7V5C3.67157 5 3 5.67157 3 6.5H5ZM4.5 13C3.67157 13 3 13.6716 3 14.5H5C5 14.7761 4.77614 15 4.5 15V13ZM21 14.5C21 13.6716 20.3284 13 19.5 13V15C19.2239 15 19 14.7761 19 14.5H21ZM19.5 16C20.3284 16 21 15.3284 21 14.5H19C19 14.2239 19.2239 14 19.5 14V16ZM4.5 14C4.77614 14 5 14.2239 5 14.5H3C3 15.3284 3.67157 16 4.5 16V14ZM19.5 12C20.3284 12 21 11.3284 21 10.5H19C19 10.2239 19.2239 10 19.5 10V12ZM3 10.5C3 11.3284 3.67157 12 4.5 12V10C4.77614 10 5 10.2239 5 10.5H3ZM4.5 9C3.67157 9 3 9.67157 3 10.5H5C5 10.7761 4.77614 11 4.5 11V9ZM19.5 11C19.2239 11 19 10.7761 19 10.5H21C21 9.67157 20.3284 9 19.5 9V11ZM13.5 20C14.3284 20 15 19.3284 15 18.5H13C13 18.2239 13.2239 18 13.5 18V20ZM3 18.5C3 19.3284 3.67157 20 4.5 20V18C4.77614 18 5 18.2239 5 18.5H3ZM4.5 17C3.67157 17 3 17.6716 3 18.5H5C5 18.7761 4.77614 19 4.5 19V17ZM13.5 19C13.2239 19 13 18.7761 13 18.5H15C15 17.6716 14.3284 17 13.5 17V19Z"
        fill="#475166"
        mask="url(#path-1-inside-1)"
    />
</svg>
