<svg width="24" height="24" viewBox="0 0 24 24" fill="none" xmlns="http://www.w3.org/2000/svg">
    <path
        d="M14.1973 15H18C19.6569 15 21 16.3431 21 18C21 19.6569 19.6569 21 18 21H14.1973C14.7078 20.1175 15 19.0929 15 18C15 16.9071 14.7078 15.8825 14.1973 15Z"
    />
    <path
        d="M9 22.5C11.4853 22.5 13.5 20.4853 13.5 18C13.5 15.5147 11.4853 13.5 9 13.5C6.51472 13.5 4.5 15.5147 4.5 18C4.5 20.4853 6.51472 22.5 9 22.5ZM9 24C5.68629 24 3 21.3137 3 18C3 14.6863 5.68629 12 9 12C12.3137 12 15 14.6863 15 18C15 21.3137 12.3137 24 9 24Z"
    />
    <path
        d="M9.80269 9C9.53413 8.53574 9.32599 8.03216 9.18903 7.5H6C5.17157 7.5 4.5 6.82843 4.5 6C4.5 5.17157 5.17157 4.5 6 4.5H9.18903C9.32599 3.96784 9.53413 3.46426 9.80269 3H6C4.34315 3 3 4.34315 3 6C3 7.65685 4.34315 9 6 9H9.80269Z"
    />
    <path
        d="M21 6C21 9.31371 18.3137 12 15 12C11.6863 12 9 9.31371 9 6C9 2.68629 11.6863 0 15 0C18.3137 0 21 2.68629 21 6Z"
    />
</svg>
