<svg width="138" height="138" viewBox="0 0 138 138" fill="none" xmlns="http://www.w3.org/2000/svg">
    <path opacity="0.01" d="M0 0H138V138H0V0Z" fill="white" fill-opacity="0.01" />
    <path
        d="M61.132 74.626C82.2727 74.626 99.4107 57.9204 99.4107 37.313C99.4107 16.7056 82.2727 0 61.132 0C39.9912 0 22.8533 16.7056 22.8533 37.313C22.8533 57.9204 39.9912 74.626 61.132 74.626Z"
        fill="#FFD1E4"
    />
    <path
        d="M0 33.7557C0 30.9971 2.23634 28.7607 4.995 28.7607H133.005C135.764 28.7607 138 30.9971 138 33.7557V48.969C138 51.7277 135.764 53.964 133.005 53.964H4.995C2.23634 53.964 0 51.7277 0 48.969V33.7557Z"
        fill="url(#paint0_linear)"
    />
    <path
        d="M12.9407 53.9892C5.79377 53.9892 0 48.3416 0 41.375V125.386C0 132.352 5.79377 138 12.9407 138H125.059C132.206 138 138 132.352 138 125.386V41.375C138 44.7205 136.637 47.929 134.21 50.2946C131.783 52.6602 128.491 53.9892 125.059 53.9892H12.9407Z"
        fill="url(#paint1_linear)"
    />
    <path
        d="M125.059 82.7496H81.9407C74.7938 82.7496 69 88.3972 69 95.3638C69 102.33 74.7938 107.978 81.9407 107.978H125.059C132.206 107.978 138 102.33 138 95.3638V70.1353C138 77.102 132.206 82.7496 125.059 82.7496Z"
        fill="#1C60BC"
    />
    <path
        d="M84.8654 101.772C88.4246 101.772 91.3099 98.9593 91.3099 95.4899C91.3099 92.0205 88.4246 89.208 84.8654 89.208C81.3062 89.208 78.4209 92.0205 78.4209 95.4899C78.4209 98.9593 81.3062 101.772 84.8654 101.772Z"
        fill="white"
    />
    <path
        opacity="0.8"
        d="M22.8533 37.3132C22.8628 43.1038 24.2539 48.8129 26.9167 53.9892H95.3732C98.0359 48.8129 99.427 43.1038 99.4365 37.3132C99.4195 34.4307 99.0546 31.5601 98.3495 28.7607H23.9144C23.218 31.5611 22.8619 34.4317 22.8533 37.3132Z"
        fill="url(#paint2_linear)"
    />
    <defs>
        <linearGradient id="paint0_linear" x1="0" y1="28.7607" x2="0" y2="53.964" gradientUnits="userSpaceOnUse">
            <stop stop-color="#3B5F94" />
            <stop offset="1" stop-color="#003A8E" />
        </linearGradient>
        <linearGradient id="paint1_linear" x1="137.701" y1="89.7922" x2="0" y2="89.7922" gradientUnits="userSpaceOnUse">
            <stop stop-color="#277FDB" />
            <stop offset="1" stop-color="#1C60BC" />
        </linearGradient>
        <linearGradient
            id="paint2_linear"
            x1="22.8533"
            y1="28.7607"
            x2="22.8533"
            y2="53.9892"
            gradientUnits="userSpaceOnUse"
        >
            <stop stop-color="#FFD1E4" />
            <stop offset="1" stop-color="#F49FB9" />
        </linearGradient>
    </defs>
</svg>
