<svg width="44" height="24" viewBox="0 0 44 24" fill="none" xmlns="http://www.w3.org/2000/svg">
    <path
        d="M10 20C14.4183 20 18 16.4183 18 12C18 7.58172 14.4183 4 10 4C5.58172 4 2 7.58172 2 12C2 16.4183 5.58172 20 10 20Z"
        fill="#FF3815"
    />
    <path
        fill-rule="evenodd"
        clip-rule="evenodd"
        d="M8.75195 7.19079C9.39315 6.9637 10.1179 6.85016 10.9264 6.85016H11.6511H12.8778V17.1321H11.0379V13.5775H9.9228L8.37095 17.1359H6.36377L8.1665 13.1517C7.8041 12.953 7.52535 12.7259 7.3023 12.4421C7.0793 12.1582 6.88414 11.846 6.77263 11.477C6.66112 11.108 6.60537 10.739 6.60537 10.3132V10.1996C6.60537 9.40485 6.8005 8.75199 7.1908 8.26943C7.5811 7.75849 8.0829 7.41787 8.75195 7.19079ZM9.4768 11.9028C9.78345 12.0163 10.1459 12.0731 10.564 12.0731H11.0379V8.29782H10.5361C9.9228 8.29782 9.421 8.43975 9.03075 8.7236C8.64045 9.00745 8.4453 9.46165 8.4453 10.1429V10.1996C8.4453 10.6822 8.5568 11.0512 8.72405 11.335C8.9192 11.5905 9.1701 11.7892 9.4768 11.9028Z"
        fill="white"
    />
    <path
        d="M22 8H24.6364C25.6555 8 26.442 8.19711 26.9958 8.59135C27.557 8.98559 27.8377 9.62155 27.8377 10.4993C27.8377 10.9679 27.7601 11.3733 27.605 11.7155C27.4573 12.0576 27.2432 12.3403 26.9626 12.5634C26.682 12.7791 26.3423 12.9391 25.9435 13.0433C25.5447 13.1474 25.1016 13.1994 24.6142 13.1994H23.584V16H22V8ZM23.584 9.3389V11.8829H24.6142C25.1312 11.8829 25.53 11.7862 25.8106 11.5928C26.0986 11.3919 26.2425 11.0497 26.2425 10.5662C26.2425 10.1422 26.106 9.83355 25.8327 9.64015C25.5669 9.43935 25.1681 9.3389 24.6364 9.3389H23.584Z"
        fill="black"
    />
    <path
        d="M30.7663 8H32.6827L35.4741 16H33.879L33.2033 14.0586H29.9909L29.3152 16H27.9749L30.7663 8ZM32.7491 12.7308L31.5971 9.42815L30.4562 12.7308H32.7491Z"
        fill="black"
    />
    <path
        d="M39.4412 12.6193V16H37.8461V12.6304L35.2651 8H37.0153L38.7433 11.2469L40.5268 8H42L39.4412 12.6193Z"
        fill="black"
    />
</svg>
