<svg width="24" height="24" viewBox="0 0 24 24" fill="none" xmlns="http://www.w3.org/2000/svg">
    <path d="M19.0705 5.22864L19.888 6.19154L4.98216 18.8472L4.16461 17.8843L19.0705 5.22864Z" fill="#475166" />
    <path
        d="M12 22C17.5135 22 22 17.5135 22 12C22 6.48649 17.5135 2 12 2C6.48649 2 2 6.48649 2 12C2 17.5135 6.48649 22 12 22ZM12 3.17614C16.8649 3.17614 20.8239 7.13513 20.8239 12C20.8239 16.8649 16.8649 20.8239 12 20.8239C7.13513 20.8239 3.17614 16.8649 3.17614 12C3.17614 7.13513 7.13513 3.17614 12 3.17614Z"
        fill="#475166"
    />
</svg>
