<svg width="24" height="24" viewBox="0 0 24 24" fill="none" xmlns="http://www.w3.org/2000/svg">
    <path
        d="M8 13.5C8 13.2239 8.22386 13 8.5 13H15.5C15.7761 13 16 13.2239 16 13.5C16 13.7761 15.7761 14 15.5 14H8.5C8.22386 14 8 13.7761 8 13.5Z"
    />
    <path
        d="M8 10.5C8 10.2239 8.22386 10 8.5 10H15.5C15.7761 10 16 10.2239 16 10.5C16 10.7761 15.7761 11 15.5 11H8.5C8.22386 11 8 10.7761 8 10.5ZM8 7.5C8 7.22386 8.22386 7 8.5 7H15.5C15.7761 7 16 7.22386 16 7.5C16 7.77614 15.7761 8 15.5 8H8.5C8.22386 8 8 7.77614 8 7.5Z"
    />
    <rect x="4.5" y="3.5" width="15" height="17" rx="1.5" />
</svg>
