<?xml version="1.0" encoding="UTF-8" standalone="no"?>
<svg
    xmlns:dc="http://purl.org/dc/elements/1.1/"
    xmlns:cc="http://creativecommons.org/ns#"
    xmlns:rdf="http://www.w3.org/1999/02/22-rdf-syntax-ns#"
    xmlns:svg="http://www.w3.org/2000/svg"
    xmlns="http://www.w3.org/2000/svg"
    xml:space="preserve"
    style="enable-background: new 0 0 49 14"
    viewBox="0 0 49 14"
    height="14px"
    width="49px"
    y="0px"
    x="0px"
    id="ID-0__9f584532-397d-4c50-9305-120ee1fe1a10"
    version="1.1"
>
    <metadata id="ID-1__9339621c-cd8d-4fe3-8c87-2933e4ea6e25">
        <rdf:RDF
            ><cc:Work rdf:about=""
                ><dc:format>image/svg+xml</dc:format
                ><dc:type rdf:resource="http://purl.org/dc/dcmitype/StillImage" /><dc:title></dc:title></cc:Work
        ></rdf:RDF>
    </metadata>
    <defs id="ID-2__14dfcf12-83ea-411e-a0e6-6d5eccfbe56e" />
    <style id="ID-3__620b915a-c881-4832-8c13-a20aa3a03c4f" type="text/css">
        .st0 {
            fill-rule: evenodd;
            clip-rule: evenodd;
            fill: url(#ID-4__667d0bfc-73bc-4916-a43e-c241d998ec3c);
        }
        .st1 {
            fill-rule: evenodd;
            clip-rule: evenodd;
            fill: #4db45f;
        }
    </style>
    <title>МИР</title>
    <linearGradient y2="3" x2="48.5" y1="3" x1="34.1742" gradientUnits="userSpaceOnUse" id="ID-4__667d0bfc-73bc-4916-a43e-c241d998ec3c">
        <stop id="ID-5__1b28d9f0-a523-4f1e-8264-fbb6fa4f6f8d" style="stop-color: #00b4e6" offset="0" />
        <stop id="ID-6__05f76168-5374-4f32-a2af-3b0d38a2345f" style="stop-color: #088ccb" offset="1" />
    </linearGradient>
    <path
        id="ID-7__fc5ad9b2-4c64-4f80-83d5-aac9ba74cffe"
        d="M43.5,0h-9.3c0.5,3.1,3.5,6,6.8,6h7.4c0.1-0.3,0.1-0.7,0.1-1C48.5,2.2,46.3,0,43.5,0z"
        class="st0"
    />
    <path
        style="clip-rule: evenodd; fill: #4db45f; fill-rule: evenodd"
        id="ID-8__f83424ba-2ceb-45ac-8ca3-80685db0d82f"
        d="m 35,6.5 0,7.5 4.5,0 0,-4 4,0 c 2.2,0 4.1,-1.5 4.7,-3.5 z"
        class="st1"
    />
    <path
        id="ID-9__394178d5-bd58-4efe-8dc5-d5d8303aed5e"
        d="M19,0v14h4c0,0,1,0,1.5-1C27.2,7.6,28,6,28,6h0.5v8H33V0h-4c0,0-1,0.1-1.5,1C25.2,5.6,24,8,24,8h-0.5V0H19z"
        class="st1"
    />
    <path
        id="ID-10__d5e34fa5-ebc4-4c4c-83c9-9fdf8dd0091f"
        d="M0,14V0h4.5c0,0,1.3,0,2,2c1.8,5.3,2,6,2,6s0.4-1.3,2-6c0.7-2,2-2,2-2H17v14h-4.5V6.5H12L9.5,14h-2L5,6.5H4.5  V14H0z"
        class="st1"
    />
</svg>
