<svg width="24" height="24" viewBox="0 0 24 24" fill="none" xmlns="http://www.w3.org/2000/svg">
    <line x1="12.5" y1="11.5" x2="20.5" y2="11.5" stroke-linecap="round" />
    <path
        d="M20.3904 8.68765C20.2179 8.47202 19.9033 8.43706 19.6877 8.60957C19.472 8.78207 19.4371 9.09672 19.6096 9.31235L20.3904 8.68765ZM22 11.5L22.3904 11.8123L22.6403 11.5L22.3904 11.1877L22 11.5ZM19.6096 13.6877C19.4371 13.9033 19.472 14.2179 19.6877 14.3904C19.9033 14.5629 20.2179 14.528 20.3904 14.3123L19.6096 13.6877ZM19.6096 9.31235L21.6096 11.8123L22.3904 11.1877L20.3904 8.68765L19.6096 9.31235ZM21.6096 11.1877L19.6096 13.6877L20.3904 14.3123L22.3904 11.8123L21.6096 11.1877Z"
    />
    <rect x="6.5" y="3.5" width="10" height="16" rx="1.5" />
</svg>
