<svg width="132" height="147" fill="none" xmlns="http://www.w3.org/2000/svg">
    <g clip-path="url(#ID-0__10aa442c-441c-482a-9c01-d72587bf4a60)">
        <path
            d="M20.521 46.558l2.563 3.543 8.95-13.698 18.294 8.33 19.436 3.196 20.593-3.387 9.675-5.465 5.19 2.788 7.05-4.602.351-3.287-2.326-1-12.02-3.705-2.055-.418-2.217-8.68-4.4-9.196-5.98-4.577-6.506-3.53-7.98-1.945-4.207 1.315-8.592 5.304-9.793 7.091-.852 13.922-21.165 3.699-5.672 5.023 1.663 9.279z"
            fill="#8330EC"
        />
        <path
            d="M118.762 77.87c0 29.788-24.1 53.936-53.83 53.936-29.73 0-53.83-24.148-53.83-53.936 0-17.412 8.235-32.898 21.016-42.76.326-.252 20.154 11.535 33.986 12.464 17.682 1.184 34.03-7.75 34.979-9.666 10.859 9.868 17.679 24.117 17.679 39.962z"
            fill="#00CD8C"
        />
        <path
            d="M21.538 46.302c-.91-1.938-1.763-4.057-1.959-6.21-.093-1.031-.062-2.184.355-3.15.367-.854 1.135-1.449 1.977-1.788 2.05-.826 4.444-.54 6.518.021 2.364.636 4.547 1.727 6.743 2.79a132.389 132.389 0 0013.766 5.72c3.85 1.352 7.744 2.527 11.774 3.175 7.787 1.253 15.866 1.23 23.628-.184 3.713-.676 7.38-1.717 10.797-3.337 1.704-.807 3.225-1.857 4.83-2.838a35.383 35.383 0 016.222-3.035c1.586-.583 3.222-1.066 4.895-1.328.022-.003.311-.04.096-.015.069-.01.134-.016.202-.022.137-.016.274-.028.411-.035.224-.012.448-.012.672-.006.04 0 .08.01.124.01.109.003-.227-.081-.09-.013a.59.59 0 00.18.044c.115-.025-.211-.106-.112-.047.097.056-.137-.115-.124-.103-.153-.162-.246-.492-.128-.822.059-.162.047-.103.019-.056-.065.109.187-.178.071-.09-.052.04-.096.108-.143.155a8.452 8.452 0 01-.491.464c-.497.449-1.014.876-1.53 1.3a109.44 109.44 0 01-3.62 2.835c-.46.346-.923.689-1.396 1.019-.407.287-.597.81-.33 1.265.237.405.852.62 1.263.33 1.219-.85 2.394-1.766 3.564-2.682 1.175-.92 2.363-1.845 3.464-2.855.327-.299.74-.645.868-1.084.183-.636-.249-1.187-.824-1.39-1.002-.355-2.283-.068-3.281.125-4.379.838-8.602 2.86-12.287 5.328-3.041 2.035-6.48 3.35-10.007 4.269-7.865 2.047-16.28 2.306-24.325 1.318-3.921-.48-7.706-1.427-11.456-2.652a127.123 127.123 0 01-14.407-5.714c-4.544-2.128-9.345-4.914-14.563-4.042-2.264.377-4.317 1.72-4.93 4.032-.622 2.34-.105 4.827.67 7.067a32.21 32.21 0 001.305 3.163c.212.452.858.567 1.263.33.457-.268.54-.807.326-1.262z"
            fill="#000"
        />
        <path
            d="M20.985 35.665c2.773-1.882 5.93-2.86 9.21-3.415 3.294-.558 6.637-.757 9.933-1.318 1.975-.337 3.925-.804 5.81-1.483.469-.169.783-.63.643-1.138-.124-.454-.662-.816-1.135-.645-3.303 1.188-6.764 1.68-10.234 2.079-3.31.38-6.665.716-9.849 1.754a21.037 21.037 0 00-5.311 2.57c-.414.281-.594.814-.33 1.266.24.408.849.614 1.262.33z"
            fill="#000"
        />
        <path
            d="M46.867 31.369c-.034-2.72-.009-5.44.035-8.164.021-1.374.052-2.748.087-4.123.015-.645.03-1.29.05-1.931.015-.57-.013-1.091.388-1.537.426-.473.955-.869 1.437-1.28a81.427 81.427 0 014.789-3.783A88.731 88.731 0 0160.5 6.005c2.344-1.405 4.757-2.733 7.236-3.886.547-.255 1.054-.342 1.648-.215.69.15 1.378.343 2.062.52 1.406.368 2.805.755 4.18 1.222 2.67.91 5.187 2.206 7.63 3.608 2.143 1.231 4.23 2.624 5.828 4.534 1.686 2.013 2.476 4.565 3.253 7.026.905 2.867 1.795 5.74 2.572 8.647.19.714.373 1.43.55 2.147.215-.38.43-.757.644-1.137a161.877 161.877 0 01-19.797 2.882 163.9 163.9 0 01-19.946.433c-3.442-.134-6.863-.268-10.168-1.312-1.136-.358-1.62 1.427-.492 1.783 2.98.94 6.045 1.162 9.15 1.311 3.373.166 6.75.225 10.128.178a166.227 166.227 0 0031.613-3.493c.498-.103.76-.676.644-1.137-.743-3.02-1.623-6.002-2.55-8.971-.852-2.733-1.601-5.621-3.128-8.07-1.44-2.306-3.561-4.051-5.831-5.494a49.92 49.92 0 00-7.678-4c-1.387-.57-2.818-1.035-4.26-1.443a83.23 83.23 0 00-2.14-.577c-.743-.193-1.49-.42-2.248-.53-1.543-.217-2.886.611-4.217 1.281a88.106 88.106 0 00-3.747 2.004 89.622 89.622 0 00-14.035 9.843c-.491.42-1.026.829-1.437 1.334-.51.626-.712 1.318-.752 2.118-.072 1.396-.075 2.799-.106 4.194a342.56 342.56 0 00-.096 8.57c.003.663.006 1.327.015 1.987.013 1.194 1.857 1.197 1.841.007z"
            fill="#000"
        />
        <path
            d="M96.462 30.031l.087.01c.152.015-.252-.04-.118-.016.08.016.164.025.248.04.19.035.38.075.57.116.513.112 1.026.243 1.533.377 1.383.364 2.752.773 4.117 1.206 1.502.473 2.995.978 4.469 1.527a59.19 59.19 0 012.021.794c.034.012.065.028.099.04.125.05-.146-.062-.024-.012.074.031.149.062.22.097.143.062.283.124.426.19.271.121.538.249.803.38.457.227.864.514 1.303.77.003.003-.181-.156-.05-.038l.093.084c.028.025.053.056.081.081.121.106-.065-.09-.062-.087.015.025.037.05.05.075.059.124-.09-.259-.053-.131.04.14-.016-.187-.016-.159 0 .13.059-.296.022-.156-.308 1.15 1.471 1.642 1.779.493.274-1.029-.781-1.73-1.533-2.166-1.16-.67-2.426-1.172-3.67-1.66-2.951-1.154-5.983-2.129-9.037-2.964-1.094-.3-2.217-.63-3.349-.735-.498-.047-.924.458-.924.925-.006.533.417.873.915.92zM79.812 7.506l-4.273-.739c-.752-.13-1.486.614-1.042 1.359 2.065 3.453 4.127 6.908 6.192 10.36.61 1.02 2.205.09 1.592-.931-2.065-3.453-4.127-6.908-6.192-10.36-.348.451-.693.906-1.041 1.358l4.272.738c.492.085.996-.13 1.136-.645.12-.448-.153-1.056-.644-1.14zM68.063 16.782A22.495 22.495 0 0069.618 6.03c-.05-.482-.382-.944-.923-.925-5.417.2-9.964 3.437-13.72 7.083-.856.828.45 2.137 1.306 1.308 3.39-3.29 7.51-6.362 12.414-6.54l-.924-.926a21.24 21.24 0 01-1.49 10.261c-.19.461.206 1.016.644 1.137.532.147.949-.18 1.138-.645zM10.86 69.304c-2.943.67-5.853 2.3-7.937 4.487C.641 76.184-.295 79.596.083 82.86c.203 1.744.722 3.449 1.637 4.957.472.782 1.057 1.49 1.785 2.04.7.534 1.511.877 2.335 1.172 1.881.677 3.785 1.294 5.678 1.935 1.605.546 3.294 1.007 4.743 1.917 1.362.854 2.164 2.075 2.382 3.648.18 1.294-.168 2.845-1.042 3.886-.32.383-.373.932 0 1.309.33.33.983.383 1.306 0 1.931-2.303 2.186-5.849.482-8.367-.967-1.427-2.416-2.311-3.977-2.963-1.68-.7-3.436-1.224-5.16-1.81l-2.85-.97c-.784-.264-1.587-.504-2.308-.915-1.353-.767-2.168-2.256-2.656-3.69-.983-2.885-.796-6.415.998-8.958.865-1.227 2.19-2.302 3.514-3.116 1.384-.85 2.82-1.486 4.407-1.847.485-.113.771-.67.644-1.138-.143-.498-.657-.757-1.142-.645z"
            fill="#000"
        />
        <path
            d="M16.668 95.058c.069.542.078 1.096.003 1.638.013-.1.007-.037-.006.025-.012.075-.028.15-.04.225a6.915 6.915 0 01-.355 1.178c.038-.09.006-.016-.015.03-.025.057-.05.113-.078.166a4.988 4.988 0 01-.19.364c-.133.24-.283.468-.441.692-.053.075.046-.053-.05.066a4.464 4.464 0 01-.118.14c-.09.103-.18.206-.277.302-.202.209-.42.399-.647.577-.392.308-.323.984 0 1.308.389.39.911.309 1.306 0 1.975-1.548 3.07-4.219 2.752-6.712-.062-.476-.379-.947-.923-.925-.445.022-.986.411-.92.925z"
            fill="#000"
        />
        <path
            d="M15.213 93.883c.028.337.053.676.056 1.016 0 .159-.003.318-.013.48-.003.03-.028.243-.018.193.006-.04-.025.115-.031.137-.112.505-.41 1.01-.728 1.383a6.33 6.33 0 01-.88.854c.112-.087-.047.031-.069.047a4.93 4.93 0 01-.899.514c.138-.06-.046.016-.07.025a4.995 4.995 0 01-.653.18c-.473.097-.79.683-.645 1.138.162.502.629.751 1.136.645 1.35-.277 2.571-1.116 3.445-2.169.498-.598.924-1.262 1.12-2.022.202-.794.161-1.61.096-2.418-.037-.48-.398-.947-.924-.925-.466.018-.964.405-.923.922zM116.996 65.039c1.023.062 1.949.532 2.795 1.084.874.57 1.695 1.234 2.488 1.91 1.555 1.327 2.811 2.882 3.564 4.799.737 1.878 1.082 3.885 1.147 5.898.069 2.081-.196 4.12-1.253 5.914-1.007 1.71-2.603 3.122-4.447 3.83-.463.177-.787.623-.644 1.137.122.445.669.825 1.135.645a11.084 11.084 0 005.01-3.86c1.393-1.914 1.997-4.207 2.05-6.554.052-2.315-.246-4.71-1.002-6.908-.771-2.243-2.033-4.21-3.794-5.805a27.65 27.65 0 00-3.215-2.533c-1.16-.773-2.438-1.327-3.838-1.408-.497-.028-.923.445-.923.925.006.527.429.894.927.926zM66.798 76.979c-.977.333-1.773 1.022-2.286 1.913-.547.95-.74 2.057-.771 3.141-.013.483.435.947.923.925a.943.943 0 00.924-.925c.006-.221.019-.44.04-.657.007-.044.004-.103.016-.147-.022.062-.022.143-.003.028a5.96 5.96 0 01.24-.957c.015-.046.033-.09.049-.137.037-.105-.072.144.006-.015.044-.09.087-.18.137-.271.084-.156.208-.293.29-.446-.044.084-.094.115-.007.016l.084-.094c.062-.068.13-.137.199-.2l.093-.083c.125-.112-.108.075-.015.01.068-.048.133-.097.205-.141.08-.05.162-.09.243-.134.149-.081-.128.043-.022.006.05-.019.096-.037.146-.053.457-.156.805-.642.644-1.137-.147-.449-.647-.807-1.135-.642zM72.078 80.974c2.82.08 5.65-.168 8.415-.739 1.35-.277 2.68-.638 3.99-1.068 1.312-.43 2.615-.904 3.956-1.24.376-.094.752-.178 1.132-.247.133-.025.317-.059.42-.068.09-.01.26-.003.257-.01 0-.003-.09-.043-.109-.059a.249.249 0 01-.09-.215c-.034-.212-.062-.255-.08-.127-.081.105-.106.37-.16.507-.12.321-.291.62-.475.907-.27.42-.084 1.022.33 1.265.448.262.992.087 1.262-.33.392-.608.74-1.324.855-2.044.14-.885-.41-1.599-1.284-1.72-.696-.097-1.449.106-2.124.262a25.36 25.36 0 00-2.236.632c-1.44.464-2.864.975-4.332 1.359-1.47.383-2.97.682-4.478.86a35.57 35.57 0 01-5.246.23c-1.19-.037-1.19 1.81-.003 1.845zM99.062 74.611a14.98 14.98 0 01-.047 3.013c-.006.062-.016.125-.022.187.01-.075.01-.078 0-.012-.018.109-.034.218-.053.327-.068.402-.155.804-.255 1.2-.118.467.153 1.025.644 1.137.479.109 1.008-.144 1.135-.645.429-1.695.588-3.462.439-5.204-.041-.48-.395-.947-.924-.925-.457.018-.961.405-.917.922zM56.585 55.756c4.858-.66 9.777-1.293 14.678-.73.495.057.924-.467.924-.925 0-.548-.426-.866-.924-.925-5.069-.586-10.15.112-15.17.794-.494.07-.764.702-.643 1.138.146.536.64.713 1.135.648zM59.934 60.044a73.88 73.88 0 018.85-.754c1.186-.031 1.192-1.879 0-1.848a77.543 77.543 0 00-9.341.82c-.494.071-.765.698-.644 1.137.147.53.64.72 1.135.645z"
            fill="#000"
        />
        <path
            d="M65.57 53.912c.304.003 2.615 2.527.273 4.586l-3.256.262c-1.866-1.788-1.564-3.895-.202-4.63l3.184-.218zM90.808 54.074a56.72 56.72 0 0113.817-1.309c1.188.031 1.188-1.816 0-1.848a58.905 58.905 0 00-14.308 1.375c-.488.109-.771.673-.644 1.137.14.502.647.754 1.135.645zM94.005 58.256c3.076.105 6.151.046 9.22-.175.498-.034.924-.399.924-.925 0-.474-.423-.96-.924-.926a87.505 87.505 0 01-9.22.175c-1.188-.04-1.188 1.81 0 1.85z"
            fill="#000"
        />
        <path
            d="M96.94 57.165a3.007 3.007 0 01-1.545-1.947 3.001 3.001 0 01.485-2.44c.153-.209.34-.402.585-.483l3.023-.383c.786.04 1.408.723 1.701 1.455a3.779 3.779 0 01-.482 3.602l-3.766.196zM89.263 123.331a683.898 683.898 0 003.28 10.139 555.96 555.96 0 001.704 5.048c.29.842.554 1.698.871 2.53.159.418.386.789.784 1.016.364.209.759.24 1.16.296 1.782.25 3.495.823 5.066 1.702 1.038.579 1.968-1.016.929-1.596a16.073 16.073 0 00-4.468-1.701c-.367-.078-.734-.14-1.104-.193-.171-.025-.377-.047-.495-.069-.348-.068-.025.025-.09.059.037-.018-.774-2.246-.846-2.455a654.426 654.426 0 01-5.01-15.262c-.357-1.134-2.142-.651-1.781.486zM39.494 138.254c-.06.788-.299 1.545-.625 2.252-.187.405-.386.801-.579 1.203-.177.374-.276.698-.643.907-1.789 1.009-3.676 1.869-5.56 2.676-.458.197-.56.873-.33 1.266.276.473.802.529 1.262.33a70.426 70.426 0 004.606-2.169c.491-.255 1.026-.486 1.455-.844.414-.346.613-.817.84-1.293.218-.452.444-.901.647-1.359.426-.963.7-1.916.78-2.969.038-.499-.45-.926-.923-.926-.538.003-.893.427-.93.926zM46.79 27.395c.752-.284 1.56-.427 2.35-.564.566-.1 1.132-.178 1.698-.259.125-.018-.196.025-.071.01.037-.007.077-.01.115-.016.078-.01.158-.022.236-.031l.516-.066c.34-.04.681-.08 1.023-.118 3.396-.374 6.805-.604 10.213-.798 3.95-.224 7.899-.38 11.854-.483 3.67-.096 7.34-.15 11.009-.121 2.556.019 5.13.037 7.678.29.199.018.395.04.594.065.494.062.923-.47.923-.925 0-.552-.426-.863-.923-.926-2.357-.296-4.761-.311-7.13-.343-3.596-.05-7.194-.006-10.789.075-3.962.09-7.923.234-11.882.443-3.526.187-7.05.414-10.564.766a82.7 82.7 0 00-4.192.518c-.908.14-1.825.29-2.712.551-.146.044-.292.09-.435.143-.466.175-.784.627-.644 1.138.122.455.666.825 1.132.65zM116.175 91.577c-.091 1.038.765 1.9 1.691 2.194 1.036.33 2.096-.113 3.032-.527.199-.087.37-.352.423-.552.062-.22.034-.517-.093-.713-.128-.197-.317-.371-.551-.424-.258-.06-.472-.012-.712.093-.037.016-.074.035-.115.05-.012.007-.202.088-.062.028.124-.052-.009.004-.034.013-.05.019-.097.04-.146.06a4.778 4.778 0 01-.504.164c-.09.025-.18.044-.271.06-.127.024.019-.013.063-.007-.044-.006-.106.01-.153.013-.093.003-.183 0-.277-.003-.155-.004.069.021.091.012-.028.01-.091-.019-.115-.025a1.695 1.695 0 01-.181-.06c-.106-.033.202.1.069.026-.028-.016-.056-.028-.084-.047a.976.976 0 01-.1-.062c-.028-.019-.124-.09-.003.003.131.1-.047-.053-.081-.084-.006-.007-.056-.072-.062-.069.019-.003.143.206.05.056-.025-.04-.112-.227-.047-.068.081.184-.003-.09-.015-.103.024.028.021.255.018.087 0-.037.003-.078.006-.115.044-.483-.454-.944-.923-.926-.529.025-.868.409-.914.926z"
            fill="#000"
        />
        <path
            d="M118.302 90.33c4.546.222 7.578 4.46 8.122 8.682.274 2.118-.252 4.128-1.601 5.717-1.331 1.568-3.101 2.593-5.082 3.066-2.705.649-5.547.268-8.181-.517-1.142-.339-1.627 1.443-.492 1.782 4.967 1.481 10.872 1.375 14.681-2.604 1.711-1.789 2.693-4.129 2.588-6.622-.112-2.667-1.058-5.331-2.696-7.438-1.77-2.274-4.45-3.773-7.343-3.913-.497-.025-.923.442-.923.925.006.518.429.898.927.923z"
            fill="#000"
        />
        <path
            d="M118.068 90.876c.753.053 1.449.73 1.972 1.234a9.543 9.543 0 011.539 1.938c.84 1.402 1.309 2.991 1.266 4.605-.09 3.425-2.712 6.173-5.71 7.585-1.977.931-4.185 1.349-6.347 1.545-.497.044-.923.393-.923.926 0 .464.423.969.923.925 4.276-.389 8.782-1.651 11.609-5.113 1.281-1.571 2.118-3.425 2.273-5.46.15-1.95-.382-3.938-1.321-5.636a11.329 11.329 0 00-2.003-2.62c-.914-.886-1.968-1.68-3.275-1.774-.497-.034-.923.452-.923.926 0 .527.423.885.92.92z"
            fill="#000"
        />
        <path
            d="M120.096 90.53c1.368.39 2.609 1.168 3.797 1.935 1.098.707 2.139 1.493 3.069 2.412 1.863 1.835 3.256 4.287 3.206 6.97-.049 2.561-1.666 4.774-3.638 6.279-2.105 1.604-4.721 2.542-7.37 2.57-2.911.031-5.819-1.022-8.011-2.947-.373-.331-.936-.368-1.306 0-.336.336-.376.975 0 1.308a14.044 14.044 0 008.294 3.459c3.01.212 6.107-.648 8.626-2.303 2.435-1.601 4.634-4.063 5.119-7.032.513-3.144-.691-6.226-2.696-8.616-1.092-1.3-2.423-2.383-3.819-3.334-1.468-1-3.057-1.991-4.78-2.48-1.144-.327-1.632 1.455-.491 1.779z"
            fill="#000"
        />
        <path
            d="M122.78 92.469c1.119.2 1.968 1.308 2.662 2.131.771.916 1.43 1.932 1.987 2.994a17.296 17.296 0 011.943 6.88c.081 1.269.063 2.571-.242 3.811a7.86 7.86 0 01-1.518 3.023c-1.468 1.832-3.383 3.243-4.835 5.088a14.302 14.302 0 00-3.07 8.379c-.04 1.19 1.807 1.187 1.844 0 .084-2.562.983-5.107 2.569-7.123 1.499-1.904 3.492-3.347 4.976-5.266.808-1.044 1.439-2.191 1.775-3.475.361-1.377.433-2.835.355-4.25a19.598 19.598 0 00-2.006-7.609 18.993 18.993 0 00-2.395-3.664c-.917-1.106-2.068-2.443-3.554-2.705-.491-.087-.995.131-1.135.645-.124.449.149 1.053.644 1.14z"
            fill="#000"
        />
        <path
            d="M26.032 102.196c-7.075-11.04-10.654-20.618-14.15-33.518l3.082-8.93c-.183 3.4-.252 4.727.39 8.067a132.83 132.83 0 007.736 25.8c1.116 2.692 3.523 7.441 5.24 9.797"
            fill="#8330EC"
        />
        <path
            d="M26.828 101.729c-2.566-4.01-4.886-8.173-6.873-12.504-1.89-4.123-3.458-8.385-4.83-12.71a202.12 202.12 0 01-2.356-8.086v.492c.899-2.608 1.8-5.216 2.699-7.827l.383-1.103c-.604-.08-1.21-.165-1.814-.246-.074 1.402-.167 2.807-.108 4.213.059 1.452.295 2.891.572 4.318a131.82 131.82 0 002.317 9.906 134.32 134.32 0 003.09 9.768c1.02 2.839 2.1 5.668 3.393 8.395 1.226 2.586 2.544 5.212 4.23 7.534.292.402.802.601 1.262.33.398-.234.625-.86.33-1.265-1.477-2.035-2.65-4.312-3.76-6.565a74.847 74.847 0 01-.833-1.748c-.112-.243-.22-.486-.33-.732l-.15-.343-.07-.165c.08.193-.081-.2-.066-.156A132.96 132.96 0 0116.55 69.16c-.326-1.592-.656-3.169-.759-4.776-.1-1.546.003-3.095.088-4.637.024-.455-.37-.857-.8-.907-.472-.056-.858.215-1.014.664-.522 1.514-1.044 3.026-1.564 4.54a1205.69 1205.69 0 00-1.06 3.078l-.33.954c-.068.196-.158.392-.158.604 0 .303.136.633.217.926a304.045 304.045 0 00.628 2.262c.28.988.57 1.975.865 2.96.57 1.888 1.17 3.77 1.816 5.634 1.24 3.583 2.65 7.11 4.264 10.54 1.893 4.03 4.08 7.915 6.48 11.664.268.42.821.592 1.263.33.429-.249.613-.847.342-1.268z"
            fill="#000"
        />
        <path
            d="M26.392 102.358c5.635 3.126 12.122 5.123 18.47 6.214 6.346 1.09 13.17 1.542 19.603 1.816-1.353 5.796-2.708 12.439-4.612 18.076-.482 1.424-1.01 2.863-1.93 4.05-.834 1.075-1.95 1.895-3.114 2.593a22.27 22.27 0 01-10.952 3.144c-3.86.071-7.666-.863-11.344-2.038-4.208-1.343-8.422-3.076-11.615-6.126-3.194-3.054-5.2-7.678-4.118-11.965.432-1.705 1.313-3.259 2.205-4.774 1.919-3.268 5.38-7.79 7.407-10.99z"
            fill="#8330EC"
        />
        <path
            d="M25.926 103.156c4.431 2.449 9.245 4.188 14.159 5.375 5.081 1.227 10.302 1.844 15.505 2.262 2.954.237 5.912.396 8.872.52-.295-.389-.594-.779-.89-1.171-1.452 6.225-2.677 12.547-4.791 18.592-.486 1.387-1.08 2.755-2.121 3.817-1.051 1.069-2.376 1.848-3.704 2.521a21.219 21.219 0 01-8.832 2.25c-3.386.106-6.72-.602-9.951-1.561-2.914-.866-5.822-1.87-8.49-3.347-2.475-1.371-4.748-3.175-6.29-5.58-1.428-2.231-2.299-4.952-1.91-7.578.224-1.515.861-2.907 1.595-4.238a49.644 49.644 0 012.143-3.496c1.598-2.405 3.315-4.736 4.932-7.129.351-.517.697-1.041 1.032-1.571.641-1.006-.957-1.935-1.592-.931-1.564 2.461-3.302 4.808-4.954 7.207-.793 1.15-1.576 2.312-2.298 3.508-.855 1.424-1.685 2.889-2.22 4.469-.986 2.91-.582 6.038.656 8.802 1.266 2.82 3.411 5.104 5.924 6.858 2.6 1.814 5.573 3.035 8.561 4.038 3.315 1.113 6.724 2.041 10.219 2.322 3.352.268 6.767-.178 9.923-1.349 3.004-1.116 6.25-2.808 7.914-5.671.825-1.418 1.322-3.026 1.817-4.581a92.323 92.323 0 001.355-4.736c.852-3.253 1.58-6.537 2.33-9.815.174-.77.351-1.539.531-2.309a.94.94 0 00-.889-1.172c-5.178-.221-10.355-.539-15.496-1.202-4.95-.639-9.855-1.674-14.57-3.338a50.18 50.18 0 01-7.54-3.365c-1.039-.573-1.972 1.025-.93 1.599z"
            fill="#000"
        />
        <path
            d="M27.723 104.159c-1.89 4.02-3.713 8.388-3.209 12.931.224 2.016.834 4.023 2.028 5.684 1.28 1.779 3.09 3.047 5.069 3.944 2.07.941 4.266 1.524 6.505 1.892 2.283.377 4.634.663 6.947.691 2.227.025 4.398-.383 6.363-1.458 1.701-.928 3.163-2.268 4.344-3.795 3.107-4.013 4.062-9.095 4.659-14.016.059-.495-.467-.925-.924-.925-.547 0-.861.427-.923.925-.492 4.042-1.238 8.239-3.452 11.732-1.894 2.988-4.86 5.319-8.453 5.634-2.183.193-4.415-.081-6.583-.353-2.065-.258-4.127-.66-6.095-1.346-1.826-.635-3.648-1.536-5.035-2.907-1.3-1.284-2.077-2.957-2.447-4.733-.94-4.496.917-8.974 2.799-12.968.211-.452.124-.997-.33-1.265-.401-.234-1.051-.122-1.263.333z"
            fill="#000"
        />
        <path
            d="M62.916 117.726c2.389-.533 4.196-1.327 6.239-2.334 20.195-9.958 36.766-23.855 49.38-42.535l-.588-3.945c-4.198 5.7-8.051 10.921-12.875 16.097-10.9 11.694-24.88 20.472-40.137 25.198"
            fill="#8330EC"
        />
        <path
            d="M63.16 118.617c2.848-.645 5.457-1.907 8.047-3.222a140.64 140.64 0 007.184-3.913 130.496 130.496 0 0013.272-8.859 124.026 124.026 0 0012.128-10.513c3.8-3.761 7.349-7.774 10.623-12.003a139.28 139.28 0 002.519-3.355c.787-1.088 1.626-2.175 2.326-3.322.342-.56.075-1.418-.018-2.041l-.339-2.284-.066-.44c-.053-.348-.448-.623-.768-.663-.395-.047-.69.13-.92.443-2.805 3.807-5.61 7.615-8.633 11.248-2.895 3.48-5.989 6.79-9.332 9.84a92.167 92.167 0 01-21.181 14.461 90.452 90.452 0 01-13.313 5.322c-1.132.352-.647 2.138.491 1.782a93.441 93.441 0 0023.607-11.164 94.695 94.695 0 0010.451-7.974c3.409-2.997 6.575-6.256 9.526-9.709 3.134-3.664 6.03-7.525 8.891-11.404l1.085-1.474c-.563-.075-1.126-.146-1.686-.221l.588 3.945.093-.714a120.806 120.806 0 01-18.13 21.173 121.373 121.373 0 01-10.598 8.756 130.884 130.884 0 01-11.655 7.63 141.766 141.766 0 01-6.229 3.419c-2.13 1.099-4.273 2.234-6.565 2.96-.622.196-1.25.364-1.887.508-.485.109-.771.673-.644 1.137.137.508.647.763 1.132.651z"
            fill="#000"
        />
    </g>
    <defs>
        <clipPath id="ID-0__10aa442c-441c-482a-9c01-d72587bf4a60">
            <path fill="#fff" d="M0 0h132v147H0z" />
        </clipPath>
    </defs>
</svg>
