<svg width="24" height="24" viewBox="0 0 24 24" fill="none" xmlns="http://www.w3.org/2000/svg">
    <g clip-path="url(#ID-0__88bb6a7d-e9c0-4700-a35e-2f2ca9b00d7d)">
        <path
            d="M14.048 18.0238L5.55499 10.8854C5.47143 10.8152 5.48418 10.683 5.57963 10.63C7.71554 9.44469 10.3613 9.69989 12.2313 11.2716L12.5191 11.5135C14.389 13.0852 15.0956 15.6477 14.2953 17.9556C14.2596 18.0588 14.1315 18.0941 14.048 18.0238Z"
            stroke="#475166"
        />
        <path
            d="M13.9672 13.3838L16.5409 10.3218C17.2516 9.47623 17.1423 8.21463 16.2967 7.50393L15.5312 6.86051C14.6856 6.14981 13.424 6.25913 12.7133 7.1047L10.1397 10.1667"
            stroke="#475166"
        />
        <rect
            x="9.77097"
            y="14.1024"
            width="0.5"
            height="7.5"
            rx="0.25"
            transform="rotate(40.0473 9.77097 14.1024)"
            fill="black"
            stroke="#475166"
            stroke-width="0.5"
        />
    </g>
    <defs>
        <clipPath id="ID-0__88bb6a7d-e9c0-4700-a35e-2f2ca9b00d7d">
            <rect width="24" height="24" fill="white" />
        </clipPath>
    </defs>
</svg>
