<svg width="180" height="138" viewBox="0 0 180 138" fill="none" xmlns="http://www.w3.org/2000/svg">
    <path
        fill-rule="evenodd"
        clip-rule="evenodd"
        d="M66.3611 114.503V37.5108L60.831 32.8571L55.3009 37.5108L49.7708 32.8571L44.2407 37.5108L38.7106 32.8571L33.1805 37.5108L27.6504 32.8571L22.1204 37.5108L16.5903 32.8571L11.0602 37.5108L5.53009 32.8571L0 37.5108V114.934C0 119.507 3.5779 123.214 7.99146 123.214H72.8182C69.238 123.131 66.3611 119.256 66.3611 114.503Z"
        fill="url(#paint0_linear_persian_bill)"
    />
    <rect
        x="60.4137"
        y="123.269"
        width="14.9198"
        height="61.5266"
        transform="rotate(-180 60.4137 123.269)"
        fill="#3C5AFB"
    />
    <path
        fill-rule="evenodd"
        clip-rule="evenodd"
        d="M43.9742 123.269H52.9666V61.7424H35.8683V112.884C35.8683 118.62 39.4906 123.269 43.9742 123.269Z"
        fill="url(#paint1_linear_persian_bill)"
    />
    <path
        fill-rule="evenodd"
        clip-rule="evenodd"
        d="M33.4153 112.884C33.4153 118.62 29.793 123.269 25.3095 123.269L98.4615 123.181L102.164 3.8147e-06L43.7249 0.215755C38.0255 0.215755 33.4153 6.12837 33.4153 13.4307V112.884Z"
        fill="url(#paint2_linear_persian_bill)"
    />
    <path
        fill-rule="evenodd"
        clip-rule="evenodd"
        d="M74.8269 13.4307V130.9L83.5913 138L92.3558 130.9L101.12 138L109.885 130.9L118.649 138L127.413 130.9L136.178 138L144.942 130.9L153.707 138L162.471 130.9L171.236 138L180 130.9V12.7737C180 5.79628 174.33 0.139938 167.335 0.139938H64.5933C70.2674 0.266281 74.8269 6.17889 74.8269 13.4307Z"
        fill="#003A8E"
    />
    <rect
        x="166.091"
        y="73.9286"
        width="20.4545"
        height="4.92857"
        rx="2.46429"
        transform="rotate(-180 166.091 73.9286)"
        fill="#00A69B"
    />
    <rect
        x="166.091"
        y="60.7857"
        width="20.4545"
        height="4.92857"
        rx="2.46428"
        transform="rotate(-180 166.091 60.7857)"
        fill="#00A69B"
    />
    <rect
        x="166.091"
        y="47.6429"
        width="20.4545"
        height="4.92857"
        rx="2.46428"
        transform="rotate(-180 166.091 47.6429)"
        fill="#00A69B"
    />
    <path
        fill-rule="evenodd"
        clip-rule="evenodd"
        d="M154.762 107.324L151.864 105.198C151.485 104.922 151.301 104.489 151.383 104.061C151.464 103.634 151.799 103.278 152.26 103.126C152.722 102.975 153.24 103.051 153.619 103.327L155.495 104.688L158.771 101.443C159.099 101.118 159.599 100.973 160.081 101.061C160.564 101.149 160.957 101.457 161.112 101.869C161.267 102.281 161.16 102.734 160.832 103.058L156.67 107.175C156.413 107.443 156.038 107.6 155.64 107.607C155.318 107.608 155.007 107.508 154.762 107.324Z"
        fill="#00A69B"
    />
    <path
        fill-rule="evenodd"
        clip-rule="evenodd"
        d="M166.091 104.321C166.091 109.765 161.695 114.179 156.273 114.179C150.861 114.154 146.479 109.755 146.455 104.321C146.455 98.8775 150.85 94.4643 156.273 94.4643C161.695 94.4643 166.091 98.8775 166.091 104.321ZM163.073 101.487C161.931 98.7246 159.244 96.9254 156.265 96.9286C152.203 96.9371 148.913 100.243 148.909 104.321C148.909 107.312 150.704 110.008 153.457 111.152C156.209 112.296 159.377 111.662 161.482 109.546C163.588 107.43 164.216 104.249 163.073 101.487Z"
        fill="#00A69B"
    />
    <path
        fill-rule="evenodd"
        clip-rule="evenodd"
        d="M134.159 111.714H92.4776C91.1093 111.714 90 110.611 90 109.25C90 107.889 91.1093 106.786 92.4776 106.786H134.159C135.527 106.786 136.636 107.889 136.636 109.25C136.636 110.611 135.527 111.714 134.159 111.714Z"
        fill="white"
    />
    <path
        fill-rule="evenodd"
        clip-rule="evenodd"
        d="M134.159 73.9286H92.4776C91.1093 73.9286 90 72.8253 90 71.4643C90 70.1033 91.1093 69 92.4776 69H134.159C135.527 69 136.636 70.1033 136.636 71.4643C136.636 72.8253 135.527 73.9286 134.159 73.9286Z"
        fill="white"
    />
    <path
        fill-rule="evenodd"
        clip-rule="evenodd"
        d="M134.159 60.7857L92.4776 60.7857C91.1093 60.7857 90 59.6824 90 58.3214C90 56.9604 91.1093 55.8571 92.4776 55.8571L134.159 55.8571C135.527 55.8571 136.636 56.9604 136.636 58.3214C136.636 59.6824 135.527 60.7857 134.159 60.7857Z"
        fill="white"
    />
    <path
        fill-rule="evenodd"
        clip-rule="evenodd"
        d="M134.159 47.6429L92.4776 47.6429C91.1093 47.6429 90 46.5396 90 45.1786C90 43.8176 91.1093 42.7143 92.4776 42.7143L134.159 42.7143C135.527 42.7143 136.636 43.8176 136.636 45.1786C136.636 46.5396 135.527 47.6429 134.159 47.6429Z"
        fill="white"
    />
    <defs>
        <linearGradient
            id="paint0_linear_persian_bill"
            x1="0"
            y1="106.601"
            x2="46.0708"
            y2="106.601"
            gradientUnits="userSpaceOnUse"
        >
            <stop stop-color="#6E88AD" />
            <stop offset="1" stop-color="#13448B" />
        </linearGradient>
        <linearGradient
            id="paint1_linear_persian_bill"
            x1="34.1205"
            y1="126.062"
            x2="52.7639"
            y2="126.062"
            gradientUnits="userSpaceOnUse"
        >
            <stop stop-color="#4F72FF" />
            <stop offset="1" stop-color="#003A8E" />
        </linearGradient>
        <linearGradient
            id="paint2_linear_persian_bill"
            x1="25.3095"
            y1="162.833"
            x2="74.0748"
            y2="162.833"
            gradientUnits="userSpaceOnUse"
        >
            <stop stop-color="#556FFB" />
            <stop offset="1" stop-color="#19488D" />
        </linearGradient>
    </defs>
</svg>
