<svg width="81" height="41" xmlns="http://www.w3.org/2000/svg" xmlns:xlink="http://www.w3.org/1999/xlink">
  <defs>
    <path id="a" d="M0 .12h22.08v20.02H0z"/>
    <path id="c" d="M0 .04h22.65v20.02H0z"/>
    <path id="e" d="M0 .12h4.76v4.77H0z"/>
  </defs>
  <g fill="none" fill-rule="evenodd">
    <g transform="translate(25.9 .35)">
      <mask id="b" fill="#fff">
        <use xlink:href="#a"/>
      </mask>
      <path d="M4.62.12h9.8c4.43 0 6.88 1.33 6.88 5.02 0 3.23-.86 3.92-2.47 4.44 1.99.67 3.25 1.53 3.25 4.67 0 4.3-2.16 5.89-6.68 5.89H0V4.04C0 1.38 1.9.12 4.62.12zm.17 10s.7-1.9 2.44-1.9h7.33c1.3 0 1.96-1 1.96-2.33 0-1.21-.66-2-1.99-2H7.1C5.7 3.9 4.8 4.98 4.8 5.98v4.16zm0 8.38s.67-2.14 2.68-2.14h6.92c2.56 0 2.9-.58 2.9-2.34 0-1.53-.25-2.25-2.73-2.25H7.3c-1.6 0-2.51 1.2-2.51 2.61v4.12z" fill="#1A0D00" mask="url(#b)"/>
    </g>
    <path d="M56.07 10.65l2.82-2.31 7.2-6.16A6.19 6.19 0 0 1 70.23.87h3l-10.22 9.37L73.7 20.9h-2.35c-3.42 0-5.27-2-5.27-2l-5.57-5.15c-1.72-1.61-4.44-1.42-4.44-1.42v5.3c0 1.53-.8 3.27-3.3 3.27h-1.49V4.16c0-3.62 4.79-3.3 4.79-3.3v9.79z" fill="#1A0D00"/>
    <g transform="translate(0 .82)">
      <mask id="d" fill="#fff">
        <use xlink:href="#c"/>
      </mask>
      <path d="M18.1 13.4c2.57-.73 4.2-3.26 4.2-6.32C22.3 1.4 19.35.04 15.2.04H3.46C.49.04 0 2.84 0 4.02v16.04h1.57c2.52 0 3.2-1.48 3.2-3.4v-2.54h7.49a3 3 0 0 1 2.75 1.49c.55.85 1.2 1.85 1.54 2.4.7 1.08 1.85 2.05 4.3 2.05h1.8s-3.46-5.1-4.56-6.66m-3.3-3.26H6.95c-.85 0-1.73.37-2.18 1.72V6.22c0-1.1.9-2.2 2.36-2.2h7.64c2.13 0 2.74.96 2.74 3.06 0 2.17-.7 3.06-2.74 3.06" fill="#1A0D00" mask="url(#d)"/>
    </g>
    <path d="M15.64 27.33h-2.15c-.17 0-.33 0-.48.02h-.04c-2.04.13-2.72 1.02-3.08 1.78-.37-.76-1.04-1.65-3.08-1.78h-.05l-.47-.02H4.14c-2.68 0-4.14 1.54-4.14 3.3v6.18s1.38.12 1.38-1.13V30.9c0-1.53 1.11-2.42 3.1-2.42H5.9c.84 0 1.54.14 2.08.42.58.31.98.8 1.14 1.49l.02.07v.04c.04.19.06.38.06.6v5.7s1.38.14 1.38-1.09V31.1c0-.2.02-.4.05-.59v-.04l.02-.07c.16-.68.57-1.18 1.15-1.5a4.52 4.52 0 0 1 2.07-.4H15.3c2 0 3.1.88 3.1 2.4v5.92s1.38.13 1.38-1.1v-5.08c0-1.76-1.45-3.3-4.13-3.3M25.8 27.33h3.8c3.14 0 4.13 1.75 4.13 3.72v2.07c0 2-1.09 3.72-4.15 3.72H25.8c-2.8 0-4.14-1.3-4.14-3.72v-2.07c0-2.09 1.15-3.72 4.14-3.72m.1 8.36h3.58c1.73 0 2.87-.73 2.87-2.57v-2.07c0-1.65-1.01-2.57-2.85-2.57h-3.6c-1.88 0-2.86.73-2.86 2.57v2.07c0 1.73.98 2.57 2.86 2.57M43.1 27.33h-3.65c-3.1 0-4.13 1.84-4.13 3.95v5.53s1.38.08 1.38-1.16V31.1c0-1.65 1.11-2.6 2.76-2.6H43.1c1.65 0 2.76.95 2.76 2.6v5.72s1.38.12 1.38-1.1v-4.43c0-2.1-1.04-3.95-4.14-3.95M50.83 32.2v.92c0 1.96 1.13 2.57 2.62 2.57h4.49c1.12 0 1.76-.44 2.05-1.09.46-1 1.53-.79 1.53-.79 0 1.38-.75 3.03-3.35 3.03H53.5c-2.76 0-4.06-1.18-4.06-3.52v-2.5c0-1.72 1.42-3.49 4.02-3.49h3.99c2.72 0 4.06 1.58 4.06 3.34v1.53h-10.7zm6.76-3.72h-4.33c-1.38 0-2.35.94-2.43 2.38v.98s.22-.79 1.13-.79h8.18c0-1.59-.96-2.57-2.55-2.57zM64.55 28.23c.25.47 2.36 4.33 3.37 6.22.69 1.28.83 1.02.83 1.02s2.57-5.93 3.05-7.12c.48-1.2 1.87-1 1.87-1l-4.75 10.71c-.84 1.92-1.57 2.82-3.91 2.82h-.46s-.16-1.15.8-1.15c1.19 0 1.82-.52 2.82-2.91 0 0-.34.05-.97-1.14-.36-.69-4.57-8.34-4.57-8.34s1.38-.12 1.92.9" fill="#1A0D00"/>
    <g transform="translate(75.82 15.9)">
      <mask id="f" fill="#fff">
        <use xlink:href="#e"/>
      </mask>
      <path d="M4.76 2.5A2.38 2.38 0 1 1 0 2.5a2.38 2.38 0 0 1 4.76 0" fill="#00CF8B" mask="url(#f)"/>
    </g>
  </g>
</svg>