<svg width="138" height="138" viewBox="0 0 138 138" fill="none" xmlns="http://www.w3.org/2000/svg">
    <path opacity="0.01" d="M0 0H138V138H0V0Z" fill="white" fill-opacity="0.01" />
    <path
        d="M61.132 74.626C82.2728 74.626 99.4107 57.9204 99.4107 37.313C99.4107 16.7056 82.2728 0 61.132 0C39.9913 0 22.8533 16.7056 22.8533 37.313C22.8533 57.9204 39.9913 74.626 61.132 74.626Z"
        fill="#11F28C"
    />
    <path
        d="M0 33.7555C0 30.9968 2.23634 28.7605 4.995 28.7605H133.005C135.764 28.7605 138 30.9968 138 33.7555V48.9688C138 51.7275 135.764 53.9638 133.005 53.9638H4.995C2.23634 53.9638 0 51.7275 0 48.9688V33.7555Z"
        fill="url(#wallet_paint0_linear)"
    />
    <path
        d="M12.9407 53.989C5.79377 53.989 0 48.3414 0 41.3748V125.386C0 132.352 5.79377 138 12.9407 138H125.059C132.206 138 138 132.352 138 125.386V41.3748C138 44.7203 136.637 47.9288 134.21 50.2944C131.783 52.66 128.491 53.989 125.059 53.989H12.9407Z"
        fill="url(#wallet_paint1_linear)"
    />
    <path
        d="M125.059 82.7495H81.9407C74.7938 82.7495 69 88.3971 69 95.3638C69 102.33 74.7938 107.978 81.9407 107.978H125.059C132.206 107.978 138 102.33 138 95.3638V70.1353C138 77.1019 132.206 82.7495 125.059 82.7495Z"
        fill="#3C5AFB"
    />
    <path
        d="M84.8654 101.772C88.4245 101.772 91.3098 98.9593 91.3098 95.4899C91.3098 92.0205 88.4245 89.208 84.8654 89.208C81.3062 89.208 78.4209 92.0205 78.4209 95.4899C78.4209 98.9593 81.3062 101.772 84.8654 101.772Z"
        fill="white"
    />
    <path
        opacity="0.8"
        d="M22.8533 37.313C22.8629 43.1036 24.254 48.8127 26.9167 53.989H95.3732C98.0359 48.8127 99.427 43.1036 99.4366 37.313C99.4195 34.4305 99.0547 31.5599 98.3496 28.7605H23.9145C23.2181 31.5609 22.8619 34.4315 22.8533 37.313H22.8533Z"
        fill="url(#wallet_paint2_linear)"
    />
    <defs>
        <linearGradient
            id="wallet_paint0_linear"
            x1="0"
            y1="28.7605"
            x2="0"
            y2="53.9638"
            gradientUnits="userSpaceOnUse"
        >
            <stop stop-color="#BB5CEE" />
            <stop offset="1" stop-color="#8825D9" />
        </linearGradient>
        <linearGradient
            id="wallet_paint1_linear"
            x1="137.701"
            y1="89.7919"
            x2="0"
            y2="89.7919"
            gradientUnits="userSpaceOnUse"
        >
            <stop stop-color="#381CC7" />
            <stop offset="0.869916" stop-color="#331EC8" />
            <stop offset="1" stop-color="#2D1AD0" />
        </linearGradient>
        <linearGradient
            id="wallet_paint2_linear"
            x1="22.8533"
            y1="28.7605"
            x2="22.8533"
            y2="53.989"
            gradientUnits="userSpaceOnUse"
        >
            <stop stop-color="#11F28C" />
            <stop offset="1" stop-color="#00AA5D" />
        </linearGradient>
    </defs>
</svg>
